<svg id="Background-skills" xmlns="http://www.w3.org/2000/svg" xmlns:xlink="http://www.w3.org/1999/xlink" width="1470" height="1080" viewBox="0 0 1470 1080">
  <defs>
    <clipPath id="clip-path">
      <rect id="Rectangle_1" data-name="Rectangle 1" width="1470" height="1080" fill="#fff" stroke="#707070" stroke-width="1"/>
    </clipPath>
  </defs>
  <g id="Mask_Group_1" data-name="Mask Group 1" clip-path="url(#clip-path)">
    <g id="g10" transform="translate(-240.582 -160)">
      <g id="g12" transform="translate(0 0)">
        <path id="path16" d="M257.154,263.824V-82.911c0-47.028-32.765-85.292-73.037-85.292s-73.034,38.264-73.034,85.292V263.824" transform="translate(1139.345 976.176)" fill="#e7e7e6"/>
        <path id="path20" d="M885.922-123.874c0,107.355,87.03,194.385,194.386,194.385s194.385-87.03,194.385-194.385-87.03-194.386-194.385-194.386S885.922-231.229,885.922-123.874Z" transform="translate(-885.922 931.074)" fill="none" stroke="#ee3b3d" stroke-miterlimit="10" stroke-width="2.667"/>
        <path id="path22" d="M865.8-486.447a37.386,37.386,0,0,0,37.385,37.387,37.386,37.386,0,0,0,37.383-37.387,37.384,37.384,0,0,0-37.383-37.383A37.384,37.384,0,0,0,865.8-486.447" transform="translate(-525.635 869.286)" fill="#ffdab9"/>
        <path id="path24" d="M35.526-60.15A26.627,26.627,0,0,0,62.153-33.523,26.627,26.627,0,0,0,88.78-60.15,26.627,26.627,0,0,0,62.153-86.777,26.627,26.627,0,0,0,35.526-60.15" transform="translate(1405.987 1000.649)" fill="#f9aa2f"/>
        <path id="path28" d="M902.043-55.862A45.182,45.182,0,0,0,947.226-10.68a45.181,45.181,0,0,0,45.182-45.182,45.181,45.181,0,0,0-45.182-45.183A45.183,45.183,0,0,0,902.043-55.862Z" transform="translate(-624.604 996.361)" fill="none" stroke="#040606" stroke-miterlimit="10" stroke-width="1.333"/>
        <path id="path30" d="M875.375-82.532a45.182,45.182,0,0,0,45.181,45.183,45.182,45.182,0,0,0,45.181-45.183,45.181,45.181,0,0,0-45.181-45.182,45.181,45.181,0,0,0-45.181,45.182" transform="translate(-563.251 988.346)" fill="#ffdab9"/>
        <path id="path32" d="M875.375-82.532a45.182,45.182,0,0,0,45.181,45.183,45.182,45.182,0,0,0,45.181-45.183,45.181,45.181,0,0,0-45.181-45.182A45.181,45.181,0,0,0,875.375-82.532Z" transform="translate(-563.251 988.346)" fill="none" stroke="#040606" stroke-miterlimit="10" stroke-width="1.333"/>
        <path id="path34" d="M1122.233-666.665a96.036,96.036,0,0,1-95.926,95.926H593.313v-95.926h528.92" transform="translate(-352.905 826.355)" fill="#e7e7e6"/>
        <path id="path36" d="M1155.887-666.665a122.474,122.474,0,0,1-122.334,122.336H481.343" transform="translate(-240.935 826.355)" fill="none" stroke="#040606" stroke-miterlimit="10" stroke-width="1.051"/>
        <path id="path42" d="M176.924,368.545V-341.866c0-96.357-63.84-174.75-142.309-174.75s-142.307,78.393-142.307,174.75V368.545" transform="translate(1504.106 871.455)" fill="none" stroke="#040606" stroke-miterlimit="10" stroke-width="1.333"/>
        <path id="path44" d="M140.862,361.776v-716c0-77.123-50.7-139.871-113.016-139.871S-85.169-431.345-85.169-354.223v716" transform="translate(1510.876 878.224)" fill="none" stroke="#040606" stroke-miterlimit="10" stroke-width="1.333"/>
        <path id="path46" d="M104.8,354.738V-367.107c0-57.6-37.558-104.464-83.724-104.464s-83.723,46.862-83.723,104.464V354.738" transform="translate(1517.645 884.994)" fill="none" stroke="#040606" stroke-miterlimit="10" stroke-width="1.333"/>
        <path id="path48" d="M734.865-789.45v314.008A109.04,109.04,0,0,0,843.906-366.4h0A109.043,109.043,0,0,0,952.947-475.442V-789.45" transform="translate(-367.716 789.45)" fill="none" stroke="#040606" stroke-miterlimit="10" stroke-width="1.11"/>
        <path id="path50" d="M747.09-789.45v314.008A93.248,93.248,0,0,0,840.233-382.3a93.246,93.246,0,0,0,93.141-93.141V-789.45" transform="translate(-364.043 789.45)" fill="none" stroke="#040606" stroke-miterlimit="10" stroke-width="1.11"/>
        <path id="path52" d="M759.315-789.45v314.008A77.331,77.331,0,0,0,836.558-398.2,77.33,77.33,0,0,0,913.8-475.442V-789.45" transform="translate(-360.369 789.45)" fill="none" stroke="#040606" stroke-miterlimit="10" stroke-width="1.11"/>
        <path id="path54" d="M771.539-789.45v314.008A61.412,61.412,0,0,0,832.883-414.1a61.412,61.412,0,0,0,61.343-61.343V-789.45" transform="translate(-356.693 789.45)" fill="none" stroke="#040606" stroke-miterlimit="10" stroke-width="1.11"/>
        <path id="path56" d="M13.436-650.186h3.589v-3.591H13.436v3.591" transform="translate(1506.471 830.229)" fill="#040606"/>
        <path id="path58" d="M13.436-633.5h3.589v-3.59H13.436v3.59" transform="translate(1506.471 835.244)" fill="#040606"/>
        <path id="path60" d="M13.436-616.82h3.589v-3.588H13.436v3.588" transform="translate(1506.471 840.259)" fill="#040606"/>
        <path id="path62" d="M13.436-600.134h3.589v-3.591H13.436v3.591" transform="translate(1506.471 845.273)" fill="#040606"/>
        <path id="path64" d="M28.542-650.186h3.589v-3.591H28.542v3.591" transform="translate(1471.719 830.229)" fill="#040606"/>
        <path id="path66" d="M28.542-633.5h3.589v-3.59H28.542v3.59" transform="translate(1471.719 835.244)" fill="#040606"/>
        <path id="path68" d="M28.542-616.82h3.589v-3.588H28.542v3.588" transform="translate(1471.719 840.259)" fill="#040606"/>
        <path id="path70" d="M28.542-600.134h3.589v-3.591H28.542v3.591" transform="translate(1471.719 845.273)" fill="#040606"/>
        <path id="path72" d="M43.648-650.186h3.59v-3.591h-3.59v3.591" transform="translate(1436.967 830.229)" fill="#040606"/>
        <path id="path74" d="M43.648-633.5h3.59v-3.59h-3.59v3.59" transform="translate(1436.967 835.244)" fill="#040606"/>
        <path id="path76" d="M43.648-616.82h3.59v-3.588h-3.59v3.588" transform="translate(1436.967 840.259)" fill="#040606"/>
        <path id="path78" d="M43.648-600.134h3.59v-3.591h-3.59v3.591" transform="translate(1436.967 845.273)" fill="#040606"/>
        <path id="path80" d="M58.753-650.186h3.59v-3.591h-3.59v3.591" transform="translate(1402.216 830.229)" fill="#040606"/>
        <path id="path82" d="M58.753-633.5h3.59v-3.59h-3.59v3.59" transform="translate(1402.216 835.244)" fill="#040606"/>
        <path id="path84" d="M58.753-616.82h3.59v-3.588h-3.59v3.588" transform="translate(1402.216 840.259)" fill="#040606"/>
        <path id="path86" d="M58.753-600.134h3.59v-3.591h-3.59v3.591" transform="translate(1402.216 845.273)" fill="#040606"/>
        <path id="path88" d="M73.859-650.186h3.589v-3.591H73.859v3.591" transform="translate(1367.464 830.229)" fill="#040606"/>
        <path id="path90" d="M73.859-633.5h3.589v-3.59H73.859v3.59" transform="translate(1367.464 835.244)" fill="#040606"/>
        <path id="path92" d="M73.859-616.82h3.589v-3.588H73.859v3.588" transform="translate(1367.464 840.259)" fill="#040606"/>
        <path id="path94" d="M73.859-600.134h3.589v-3.591H73.859v3.591" transform="translate(1367.464 845.273)" fill="#040606"/>
        <path id="path96" d="M88.964-650.186h3.59v-3.591h-3.59v3.591" transform="translate(1332.713 830.229)" fill="#040606"/>
        <path id="path98" d="M88.964-633.5h3.59v-3.59h-3.59v3.59" transform="translate(1332.713 835.244)" fill="#040606"/>
        <path id="path100" d="M88.964-616.82h3.59v-3.588h-3.59v3.588" transform="translate(1332.713 840.259)" fill="#040606"/>
        <path id="path102" d="M88.964-600.134h3.59v-3.591h-3.59v3.591" transform="translate(1332.713 845.273)" fill="#040606"/>
        <path id="path104" d="M104.07-650.186h3.59v-3.591h-3.59v3.591" transform="translate(1297.961 830.229)" fill="#040606"/>
        <path id="path106" d="M104.07-633.5h3.59v-3.59h-3.59v3.59" transform="translate(1297.961 835.244)" fill="#040606"/>
        <path id="path108" d="M104.07-616.82h3.59v-3.588h-3.59v3.588" transform="translate(1297.961 840.259)" fill="#040606"/>
        <path id="path110" d="M104.07-600.134h3.59v-3.591h-3.59v3.591" transform="translate(1297.961 845.273)" fill="#040606"/>
        <path id="path112" d="M119.176-650.186h3.589v-3.591h-3.589v3.591" transform="translate(1263.209 830.229)" fill="#040606"/>
        <path id="path114" d="M119.176-633.5h3.589v-3.59h-3.589v3.59" transform="translate(1263.209 835.244)" fill="#040606"/>
        <path id="path116" d="M119.176-616.82h3.589v-3.588h-3.589v3.588" transform="translate(1263.209 840.259)" fill="#040606"/>
        <path id="path118" d="M119.176-600.134h3.589v-3.591h-3.589v3.591" transform="translate(1263.209 845.273)" fill="#040606"/>
        <path id="path120" d="M134.281-650.186h3.59v-3.591h-3.59v3.591" transform="translate(1228.459 830.229)" fill="#040606"/>
        <path id="path122" d="M134.281-633.5h3.59v-3.59h-3.59v3.59" transform="translate(1228.459 835.244)" fill="#040606"/>
        <path id="path124" d="M134.281-616.82h3.59v-3.588h-3.59v3.588" transform="translate(1228.459 840.259)" fill="#040606"/>
        <path id="path126" d="M134.281-600.134h3.59v-3.591h-3.59v3.591" transform="translate(1228.459 845.273)" fill="#040606"/>
        <path id="path128" d="M149.388-650.186h3.588v-3.591h-3.588v3.591" transform="translate(1193.707 830.229)" fill="#040606"/>
        <path id="path130" d="M149.388-633.5h3.588v-3.59h-3.588v3.59" transform="translate(1193.707 835.244)" fill="#040606"/>
        <path id="path132" d="M149.388-616.82h3.588v-3.588h-3.588v3.588" transform="translate(1193.707 840.259)" fill="#040606"/>
        <path id="path134" d="M149.388-600.134h3.588v-3.591h-3.588v3.591" transform="translate(1193.707 845.273)" fill="#040606"/>
        <path id="path136" d="M164.493-650.186h3.59v-3.591h-3.59v3.591" transform="translate(1158.954 830.229)" fill="#040606"/>
        <path id="path138" d="M164.493-633.5h3.59v-3.59h-3.59v3.59" transform="translate(1158.954 835.244)" fill="#040606"/>
        <path id="path140" d="M164.493-616.82h3.59v-3.588h-3.59v3.588" transform="translate(1158.954 840.259)" fill="#040606"/>
        <path id="path142" d="M164.493-600.134h3.59v-3.591h-3.59v3.591" transform="translate(1158.954 845.273)" fill="#040606"/>
        <path id="path210" d="M178.56-365.81a4.9,4.9,0,0,0,4.9,4.9,4.9,4.9,0,0,0,4.9-4.9,4.9,4.9,0,0,0-4.9-4.9,4.9,4.9,0,0,0-4.9,4.9" transform="translate(1120.389 915.31)" fill="#fff"/>
        <path id="path212" d="M227.671-365.81a4.9,4.9,0,0,0,4.9,4.9,4.9,4.9,0,0,0,4.9-4.9,4.9,4.9,0,0,0-4.9-4.9,4.9,4.9,0,0,0-4.9,4.9" transform="translate(1007.403 915.31)" fill="#fff"/>
        <path id="path214" d="M276.783-365.81a4.9,4.9,0,0,0,4.9,4.9,4.9,4.9,0,0,0,4.9-4.9,4.9,4.9,0,0,0-4.9-4.9,4.9,4.9,0,0,0-4.9,4.9" transform="translate(894.418 915.31)" fill="#040606"/>
        <path id="path216" d="M325.894-365.81a4.9,4.9,0,0,0,4.9,4.9,4.9,4.9,0,0,0,4.9-4.9,4.9,4.9,0,0,0-4.9-4.9,4.9,4.9,0,0,0-4.9,4.9" transform="translate(781.436 915.31)" fill="#040606"/>
        <path id="path218" d="M178.56-317.128a4.9,4.9,0,0,0,4.9,4.9,4.9,4.9,0,0,0,4.9-4.9,4.9,4.9,0,0,0-4.9-4.9,4.9,4.9,0,0,0-4.9,4.9" transform="translate(1120.389 929.942)" fill="#040606"/>
        <path id="path220" d="M227.671-317.128a4.9,4.9,0,0,0,4.9,4.9,4.9,4.9,0,0,0,4.9-4.9,4.9,4.9,0,0,0-4.9-4.9,4.9,4.9,0,0,0-4.9,4.9" transform="translate(1007.403 929.942)" fill="#040606"/>
        <path id="path222" d="M276.783-317.128a4.9,4.9,0,0,0,4.9,4.9,4.9,4.9,0,0,0,4.9-4.9,4.9,4.9,0,0,0-4.9-4.9,4.9,4.9,0,0,0-4.9,4.9" transform="translate(894.418 929.942)" fill="#040606"/>
        <path id="path224" d="M325.894-317.128a4.9,4.9,0,0,0,4.9,4.9,4.9,4.9,0,0,0,4.9-4.9,4.9,4.9,0,0,0-4.9-4.9,4.9,4.9,0,0,0-4.9,4.9" transform="translate(781.436 929.942)" fill="#040606"/>
        <path id="path226" d="M178.56-268.444a4.9,4.9,0,0,0,4.9,4.9,4.9,4.9,0,0,0,4.9-4.9,4.9,4.9,0,0,0-4.9-4.9,4.894,4.894,0,0,0-4.9,4.9" transform="translate(1120.389 944.575)" fill="#040606"/>
        <path id="path228" d="M227.671-268.444a4.9,4.9,0,0,0,4.9,4.9,4.9,4.9,0,0,0,4.9-4.9,4.9,4.9,0,0,0-4.9-4.9,4.895,4.895,0,0,0-4.9,4.9" transform="translate(1007.403 944.575)" fill="#040606"/>
        <path id="path230" d="M276.783-268.444a4.9,4.9,0,0,0,4.9,4.9,4.9,4.9,0,0,0,4.9-4.9,4.895,4.895,0,0,0-4.9-4.9,4.895,4.895,0,0,0-4.9,4.9" transform="translate(894.418 944.575)" fill="#040606"/>
        <path id="path232" d="M325.894-268.444a4.9,4.9,0,0,0,4.9,4.9,4.9,4.9,0,0,0,4.9-4.9,4.9,4.9,0,0,0-4.9-4.9,4.894,4.894,0,0,0-4.9,4.9" transform="translate(781.436 944.575)" fill="#040606"/>
        <path id="path234" d="M178.56-219.758a4.9,4.9,0,0,0,4.9,4.9,4.9,4.9,0,0,0,4.9-4.9,4.9,4.9,0,0,0-4.9-4.9,4.9,4.9,0,0,0-4.9,4.9" transform="translate(1120.389 959.208)" fill="#040606"/>
        <path id="path236" d="M227.671-219.758a4.9,4.9,0,0,0,4.9,4.9,4.9,4.9,0,0,0,4.9-4.9,4.9,4.9,0,0,0-4.9-4.9,4.9,4.9,0,0,0-4.9,4.9" transform="translate(1007.403 959.208)" fill="#040606"/>
        <path id="path238" d="M276.783-219.758a4.9,4.9,0,0,0,4.9,4.9,4.9,4.9,0,0,0,4.9-4.9,4.9,4.9,0,0,0-4.9-4.9,4.9,4.9,0,0,0-4.9,4.9" transform="translate(894.418 959.208)" fill="#040606"/>
        <path id="path240" d="M325.894-219.758a4.9,4.9,0,0,0,4.9,4.9,4.9,4.9,0,0,0,4.9-4.9,4.9,4.9,0,0,0-4.9-4.9,4.9,4.9,0,0,0-4.9,4.9" transform="translate(781.436 959.208)" fill="#040606"/>
        <path id="path242" d="M937.83-619.784a3.852,3.852,0,0,0,3.853,3.851,3.852,3.852,0,0,0,3.853-3.851,3.853,3.853,0,0,0-3.853-3.853,3.853,3.853,0,0,0-3.853,3.853" transform="translate(-624.275 839.288)" fill="#040606"/>
        <path id="path244" d="M976.472-619.784a3.852,3.852,0,0,0,3.853,3.851,3.854,3.854,0,0,0,3.855-3.851,3.854,3.854,0,0,0-3.855-3.853,3.852,3.852,0,0,0-3.853,3.853" transform="translate(-713.176 839.288)" fill="#040606"/>
        <path id="path246" d="M937.83-581.477a3.853,3.853,0,0,0,3.853,3.853,3.852,3.852,0,0,0,3.853-3.853,3.855,3.855,0,0,0-3.853-3.855,3.855,3.855,0,0,0-3.853,3.855" transform="translate(-624.275 850.801)" fill="#040606"/>
        <path id="path248" d="M976.472-581.477a3.853,3.853,0,0,0,3.853,3.853,3.854,3.854,0,0,0,3.855-3.853,3.857,3.857,0,0,0-3.855-3.855,3.855,3.855,0,0,0-3.853,3.855" transform="translate(-713.176 850.801)" fill="#040606"/>
        <path id="path250" d="M937.83-543.169a3.853,3.853,0,0,0,3.853,3.851,3.853,3.853,0,0,0,3.853-3.851,3.854,3.854,0,0,0-3.853-3.855,3.854,3.854,0,0,0-3.853,3.855" transform="translate(-624.275 862.315)" fill="#040606"/>
        <path id="path252" d="M976.472-543.169a3.853,3.853,0,0,0,3.853,3.851,3.855,3.855,0,0,0,3.855-3.851,3.856,3.856,0,0,0-3.855-3.855,3.854,3.854,0,0,0-3.853,3.855" transform="translate(-713.176 862.315)" fill="#040606"/>
        <path id="path254" d="M937.83-504.863a3.854,3.854,0,0,0,3.853,3.853,3.854,3.854,0,0,0,3.853-3.853,3.855,3.855,0,0,0-3.853-3.855,3.855,3.855,0,0,0-3.853,3.855" transform="translate(-624.275 873.829)" fill="#040606"/>
        <path id="path256" d="M976.472-504.863a3.854,3.854,0,0,0,3.853,3.853,3.855,3.855,0,0,0,3.855-3.853,3.857,3.857,0,0,0-3.855-3.855,3.855,3.855,0,0,0-3.853,3.855" transform="translate(-713.176 873.829)" fill="#040606"/>
        <path id="path258" d="M937.83-466.555a3.853,3.853,0,0,0,3.853,3.851,3.853,3.853,0,0,0,3.853-3.851,3.854,3.854,0,0,0-3.853-3.855,3.854,3.854,0,0,0-3.853,3.855" transform="translate(-624.275 885.343)" fill="#040606"/>
        <path id="path260" d="M976.472-466.555a3.853,3.853,0,0,0,3.853,3.851,3.855,3.855,0,0,0,3.855-3.851,3.855,3.855,0,0,0-3.855-3.855,3.854,3.854,0,0,0-3.853,3.855" transform="translate(-713.176 885.343)" fill="#040606"/>
        <path id="path262" d="M937.83-428.25a3.854,3.854,0,0,0,3.853,3.855,3.854,3.854,0,0,0,3.853-3.855,3.855,3.855,0,0,0-3.853-3.853,3.855,3.855,0,0,0-3.853,3.853" transform="translate(-624.275 896.856)" fill="#040606"/>
        <path id="path264" d="M976.472-428.25a3.854,3.854,0,0,0,3.853,3.855,3.855,3.855,0,0,0,3.855-3.855,3.856,3.856,0,0,0-3.855-3.853,3.855,3.855,0,0,0-3.853,3.853" transform="translate(-713.176 896.856)" fill="#040606"/>
        <path id="path266" d="M937.83-389.942a3.854,3.854,0,0,0,3.853,3.853,3.854,3.854,0,0,0,3.853-3.853,3.854,3.854,0,0,0-3.853-3.853,3.854,3.854,0,0,0-3.853,3.853" transform="translate(-624.275 908.37)" fill="#040606"/>
        <path id="path268" d="M976.472-389.942a3.854,3.854,0,0,0,3.853,3.853,3.855,3.855,0,0,0,3.855-3.853,3.855,3.855,0,0,0-3.855-3.853,3.854,3.854,0,0,0-3.853,3.853" transform="translate(-713.176 908.37)" fill="#040606"/>
        <path id="path270" d="M0-21.324H433.64V6.409H0V-21.324" transform="translate(962.33 1233.323)" fill="#454141"/>
        <path id="path272" d="M669.534-666.665H871.267v27.731H669.534v-27.731" transform="translate(-201.07 826.355)" fill="#040606"/>
      </g>
    </g>
  </g>
</svg>
