<svg xmlns="http://www.w3.org/2000/svg" width="121" height="121" viewBox="0 0 121 121">
  <g id="behance" transform="translate(-691 -3537)">
    <g id="Ellipse_5" data-name="Ellipse 5" transform="translate(691 3537)" fill="#454141" stroke="#707070" stroke-width="1">
      <circle cx="60.5" cy="60.5" r="60.5" stroke="none"/>
      <circle cx="60.5" cy="60.5" r="60" fill="none"/>
    </g>
    <g id="behance-2" data-name="behance" transform="translate(712.5 3475.021)">
      <g id="Group_8" data-name="Group 8" transform="translate(0 95.979)">
        <g id="Group_7" data-name="Group 7" transform="translate(0 0)">
          <path id="Path_11" data-name="Path 11" d="M31.872,117.866a11.62,11.62,0,0,0,3.656-2.683,10.422,10.422,0,0,0,2.213-6.958,11.907,11.907,0,0,0-2.194-7.21q-3.661-4.91-12.411-5.036H0v47.226H21.572a33.734,33.734,0,0,0,6.765-.634,13.3,13.3,0,0,0,5.409-2.373,13.1,13.1,0,0,0,3.39-3.714,13.645,13.645,0,0,0,2.135-7.53,12.39,12.39,0,0,0-1.864-6.92A10.761,10.761,0,0,0,31.872,117.866ZM9.544,104.182h10.42a18.371,18.371,0,0,1,5.661.736c1.714.712,2.571,2.16,2.571,4.368,0,1.98-.654,3.365-1.947,4.145a9.766,9.766,0,0,1-5.065,1.172H9.544Zm16.478,30a11.413,11.413,0,0,1-4.852.833H9.544V122.418H21.33a12.3,12.3,0,0,1,4.794.794,5.064,5.064,0,0,1,3.046,5.07C29.17,131.187,28.124,133.143,26.022,134.179Z" transform="translate(0 -95.979)" fill="#fff"/>
          <rect id="Rectangle_3" data-name="Rectangle 3" width="20.516" height="5.878" transform="translate(49.507 2.203)" fill="#fff"/>
          <path id="Path_12" data-name="Path 12" d="M314.673,185.2a16.848,16.848,0,0,0-2.828-7.22,14.255,14.255,0,0,0-6.111-5.167,20.23,20.23,0,0,0-8.329-1.637,17.237,17.237,0,0,0-12.658,4.842q-4.874,4.845-4.876,13.926,0,9.682,5.409,13.979a19.431,19.431,0,0,0,12.469,4.3q8.563,0,13.321-5.089a11.458,11.458,0,0,0,3.428-6.314h-9.452a7.622,7.622,0,0,1-1.908,2.4,7.913,7.913,0,0,1-5.133,1.6A9.489,9.489,0,0,1,292.9,199.5c-2.334-1.4-3.554-3.864-3.709-7.365h25.794A44.442,44.442,0,0,0,314.673,185.2Zm-25.252.905a9.466,9.466,0,0,1,2.47-5.4,7.443,7.443,0,0,1,5.525-2,8.219,8.219,0,0,1,5.5,1.879,7.637,7.637,0,0,1,2.465,5.525Z" transform="translate(-237.522 -159.8)" fill="#fff"/>
        </g>
      </g>
    </g>
  </g>
</svg>
