<svg xmlns="http://www.w3.org/2000/svg" xmlns:xlink="http://www.w3.org/1999/xlink" width="777" height="1006.127" viewBox="0 0 777 1006.127">
  <defs>
    <filter id="path218" x="115.83" y="342.945" width="139.215" height="532.887" filterUnits="userSpaceOnUse">
      <feOffset dy="3" input="SourceAlpha"/>
      <feGaussianBlur stdDeviation="1" result="blur"/>
      <feFlood flood-opacity="0.063"/>
      <feComposite operator="in" in2="blur"/>
      <feComposite in="SourceGraphic"/>
    </filter>
  </defs>
  <g id="contactmeGirl" transform="translate(-23 -73.873)">
    <g id="circle" transform="translate(690 849.849)">
      <circle id="Ellipse_1" data-name="Ellipse 1" cx="388.5" cy="388.5" r="388.5" transform="translate(-667 -676.849)" fill="#ffdab9"/>
    </g>
    <g id="whitegirl" transform="translate(-463 2914.42)">
      <path id="path216" d="M930.064-1391.034s27.911-10.319,53.14,2.569c26.866,13.733,40.5,27.466,46.681,142.794s5.491,172.986,6.178,181.92-219.675,6.174-219.675,6.174v-286.951l113.676-46.505" transform="translate(-85.191 -1434.954)" fill="#0b0635"/>
      <g transform="matrix(1, 0, 0, 1, 486, -2840.55)" filter="url(#path218)">
        <path id="path218-2" data-name="path218" d="M795.613-1001.664S683.429-989.441,685.531-796.12s-39.1,179.836-5.4,317.526c0,0,76.229,15.423,119.912-15.738l-4.432-380.243v-127.089h0" transform="translate(-548 1344.61)" fill="#fcfcfc"/>
      </g>
      <path id="path220" d="M1076.878-272.776l.162-1.352H717.206c3.6-21.506,11.812-53.31,21.917-88.358.935-3.245,1.892-6.545,2.858-9.846l.055-.191c3.563-12.167,7.324-24.616,11.16-37.087l.185-.608c17.463-56.768,36.545-113.807,46.989-144.54a.093.093,0,0,0,.01-.045c2.467-7.244,4.445-13.012,5.8-16.978v-.023c1.38-3.966,2.13-6.129,2.13-6.129h234.148c.674,1.949,1.869,6.985,3.467,14.443v.011q.6,2.788,1.272,6.016c4.629,22.284,11.758,59.528,19.288,99.849.011.011.011.011,0,.023.587,3.132,1.174,6.253,1.772,9.407,3.368,18.082,6.78,36.58,10.073,54.459.381,2.1.76,4.168,1.141,6.253q1.239,6.726,2.445,13.282c.065.383.142.766.207,1.149.749,4.1,1.5,8.156,2.216,12.133q1.059,5.745,2.076,11.277c7.259,39.836,12.746,70.332,13.681,75.5.1.518.141.789.141.789l-23.363.563" transform="translate(-69.812 -1561.644)" fill="#ff7c90"/>
      <path id="path222" d="M814.8-998.311s-50.877,14.792-44.017,121.727-50.837,239.555,32.255,254.978l228.939-2.85a39.456,39.456,0,0,0,38.959-39.453V-1000.7l-47.988-8.325L814.8-998.31h0" transform="translate(-76.078 -1494.797)" fill="#fcfcfc"/>
      <path id="path224" d="M975.866-1054.57l-82.839,2.49,2.844-71.143h75.875l4.12,68.653" transform="translate(-97.075 -1477.088)" fill="#fcd093"/>
      <path id="path226" d="M880.938-1054.411H986.681a14.629,14.629,0,0,1,14.108,12.133l6,30.575-145.484,5.644,5.4-35.532c1.123-7.39,7.152-12.82,14.226-12.82" transform="translate(-92.157 -1487.759)" fill="#fcfcfc"/>
      <path id="path228" d="M973.05-1096.235c-4.7,9.981-13.326,19.9-25.612,21.27-21.1,2.366-41.674-21.044-51.828-34-2.028-2.591-3.014-4.754-4.138-6.219a49.05,49.05,0,0,0,9.33,4.641c8.138,3.053,20.593,6.219,37.155,6.2a61.3,61.3,0,0,0,27.787-6.2l6.411-.1.894,14.409" transform="translate(-96.834 -1478.335)" fill="#eab186"/>
      <path id="path230" d="M1000.989-1240.668c1.795,57.2-32.283,104.67-76.115,106.045s-80.821-43.869-82.614-101.054,32.283-104.67,76.115-106.045,80.82,43.869,82.614,101.054" transform="translate(-89.193 -1443.202)" fill="#fcd093"/>
      <path id="path232" d="M1045.277-1218.3c0,11.829-10.271,23.264-18.742,23.264s-15.34-9.587-15.34-21.427,11.256-21.439,19.726-21.439,14.355,7.762,14.355,19.6" transform="translate(-115.399 -1459.306)" fill="#f8bd8c"/>
      <path id="path234" d="M988.3-1261.3a6.026,6.026,0,0,1-1.925-.3c-17.034-5.588-28.247-.507-28.715-.293a6.184,6.184,0,0,1-8.209-2.94,6.146,6.146,0,0,1,2.848-8.19c.639-.315,15.894-7.525,37.922-.315a6.171,6.171,0,0,1,3.949,7.785,6.168,6.168,0,0,1-5.868,4.258" transform="translate(-105.73 -1453.315)"/>
      <path id="path236" d="M854.293-1250.257a6.164,6.164,0,0,1-5.117-2.7,6.146,6.146,0,0,1,1.568-8.528c.584-.406,14.566-9.869,37.435-6.072a6.168,6.168,0,0,1,5.088,7.1,6.186,6.186,0,0,1-7.1,5.081c-17.673-2.906-28,3.8-28.428,4.078a6.157,6.157,0,0,1-3.443,1.048" transform="translate(-90.109 -1454.568)"/>
      <path id="path238" d="M934.5-1193.866h-6.178a1.029,1.029,0,0,1-1.03-1.025v-23.174a1.029,1.029,0,0,1,1.03-1.025,1.028,1.028,0,0,1,1.03,1.025v22.137H934.5a1.039,1.039,0,0,1,1.031,1.036,1.029,1.029,0,0,1-1.031,1.025" transform="translate(-102.388 -1462.223)"/>
      <path id="path240" d="M886.99-1225.394c0,4.754-3.075,8.618-6.865,8.618s-6.865-3.864-6.865-8.618,3.074-8.63,6.865-8.63,6.865,3.864,6.865,8.63" transform="translate(-94.01 -1459.907)"/>
      <path id="path242" d="M981.439-1235.605c0,4.765-3.073,8.63-6.865,8.63s-6.864-3.864-6.864-8.63,3.073-8.618,6.864-8.618,6.865,3.853,6.865,8.618" transform="translate(-108.656 -1458.326)"/>
      <path id="path244" d="M906.611-1155.9c2.322,10.59,14.782,17.473,28.579,15.5,11.991-1.712,21.131-9.576,22.841-18.7l-51.42,3.2" transform="translate(-99.182 -1471.525)" fill="#fcfcfc"/>
      <path id="path246" d="M921.09-1395.242c21.544,43.2-30.464,58.729-50.154,82.105-21.522,25.562-36.4,76.021-35.237,109.616,3.162,91.67,34.159,165.156-26.292,249.052,12.532-50.955-6.523-89.89-22.408-136.124-17.471-50.865-17.175-102.992-11.145-155.817,4.543-39.8,6.025-104.2,35.96-134.254,17.188-17.259,95.551-42.111,109.276-14.578" transform="translate(-78.327 -1433)" fill="#0b0635"/>
      <path id="path248" d="M942.536-1342.5s9.637,16.944,31.214,27.353c30.561,14.758,37.107,63.3,37.107,63.3l12.406-6.759-24.006-90.341-56.721,6.444" transform="translate(-104.752 -1442.087)" fill="#0b0635"/>
      <path id="path250" d="M1148.376-366.757l-15.22-4.991a5.691,5.691,0,0,1,.206-6.129c2.1-3.459,7.082-3.346,9.512-3.1a45.317,45.317,0,0,1,7.465,2.141s5.965-6.816,12.063-9.9c0,0-1.59-8.37,1.238-13.823a21.976,21.976,0,0,1-5.571-15.783s-.645-1.138-1.591-2.884c-.8.36-2.341,1.07-3.338,1.634-1.39.8-1.51,5.329-.958,8.055s1.159,11.356.3,16.29-4.634,8.28-10.258,8.1-5.807-5.7-6.9-10.59-.624-9.474-.231-18.284-1.9-13.2-3.576-21.518a57.264,57.264,0,0,1-1.067-14.984c.741-6.94,3.5-15.333,4.237-17.484-.812-5.013-.746-9.722.848-13.237,2.863-6.3-6.433-52.273-6.433-52.273L1176.1-530.2l-4.375,52s14.707,30.8,19.574,44.635,8.412,21.146,7.733,28.018c0,0-7.14,27.669-14.474,33.775-7.519,6.264-24.235,17.259-29.116,17.631-5.267.406-19.252-1.465-19.252-1.465a14.551,14.551,0,0,1-5.438-1.419s-2.253.034-.515-4.664,6.561-3.526,18.145-5.07" transform="translate(-133.682 -1568.221)" fill="#fcd093"/>
      <path id="path252" d="M1097.8-1004.9s65.761-4.709,88.923,87.513,20.723,126.808,19.5,185.547,67.286,174.721,5.1,249.469c0,0-52.65-26.2-101.415-36.174,0,0-8.527-9.294-3.648-106.236,4.868-96.919-8.468-380.119-8.468-380.119h0" transform="translate(-128.828 -1495.43)" fill="#fcfcfc"/>
      <path id="path254" d="M755.737-379.439s-19.529,1.205-23.326,1.149c0,0,.281,27.241,11.663,36.512l.269.225,11.393-37.887" transform="translate(-72.169 -1592.423)" fill="#fcd093"/>
      <path id="path256" d="M796.454-643.561a2.258,2.258,0,0,1-2.239-2.017,159.839,159.839,0,0,1,2.655-45.2c2.519-11.592.8-18.273-1.815-28.4a186.225,186.225,0,0,1-6.381-39.126c-2.539-40.782,12.613-63.787,13.259-64.744a2.247,2.247,0,0,1,3.129-.608,2.247,2.247,0,0,1,.609,3.121c-.231.349-14.929,22.914-12.5,61.962a182.143,182.143,0,0,0,6.247,38.27c2.671,10.364,4.6,17.856,1.853,30.485-4.765,21.923-2.6,43.553-2.575,43.768a2.261,2.261,0,0,1-2.009,2.478,1.652,1.652,0,0,1-.235.011" transform="translate(-80.849 -1523.481)" fill="#ccdde7"/>
      <path id="path260" d="M946.864-548.666h-135.9a2.256,2.256,0,0,1-2.253-2.253,2.249,2.249,0,0,1,2.253-2.253h135.9a2.249,2.249,0,0,1,2.253,2.253,2.256,2.256,0,0,1-2.253,2.253" transform="translate(-84 -1565.483)" fill="#dc4070"/>
    </g>
  </g>
</svg>
