<svg id="contactmeBackground" xmlns="http://www.w3.org/2000/svg" xmlns:xlink="http://www.w3.org/1999/xlink" width="1920" height="1080" viewBox="0 0 1920 1080">
  <defs>
    <style>
      .cls-1, .cls-11 {
        fill: #fff;
      }

      .cls-1 {
        stroke: #707070;
      }

      .cls-2 {
        clip-path: url(#clip-path);
      }

      .cls-3 {
        fill: #e7e7e6;
      }

      .cls-4, .cls-7, .cls-8, .cls-9 {
        fill: none;
        stroke-miterlimit: 10;
      }

      .cls-4 {
        stroke: #ee3b3d;
        stroke-width: 2.667px;
      }

      .cls-5 {
        fill: #ffdab9;
      }

      .cls-6 {
        fill: #f9aa2f;
      }

      .cls-7, .cls-8, .cls-9 {
        stroke: #040606;
      }

      .cls-7 {
        stroke-width: 1.333px;
      }

      .cls-8 {
        stroke-width: 1.051px;
      }

      .cls-9 {
        stroke-width: 1.11px;
      }

      .cls-10 {
        fill: #040606;
      }

      .cls-12 {
        fill: #454141;
      }
    </style>
    <clipPath id="clip-path">
      <rect id="Rectangle_1" data-name="Rectangle 1" class="cls-1" width="1920" height="1080"/>
    </clipPath>
  </defs>
  <g id="Mask_Group_4" data-name="Mask Group 4" class="cls-2">
    <g id="Group_25" data-name="Group 25">
      <g id="g10" transform="translate(479.552 -160)">
        <g id="g12">
          <path id="path16" class="cls-3" d="M111.083,263.824V-82.911c0-47.028,32.765-85.292,73.037-85.292s73.034,38.264,73.034,85.292V263.824" transform="translate(173.448 976.176)"/>
          <path id="path20" class="cls-4" d="M1274.693-123.874c0,107.355-87.03,194.385-194.386,194.385S885.922-16.518,885.922-123.874s87.03-194.386,194.385-194.386S1274.693-231.229,1274.693-123.874Z" transform="translate(406.338 931.074)"/>
          <path id="path22" class="cls-5" d="M940.572-486.447a37.386,37.386,0,0,1-37.385,37.387A37.386,37.386,0,0,1,865.8-486.447a37.384,37.384,0,0,1,37.383-37.383,37.384,37.384,0,0,1,37.385,37.383" transform="translate(400.291 869.286)"/>
          <path id="path24" class="cls-6" d="M88.78-60.15A26.627,26.627,0,0,1,62.153-33.523,26.627,26.627,0,0,1,35.526-60.15,26.627,26.627,0,0,1,62.153-86.777,26.627,26.627,0,0,1,88.78-60.15" transform="translate(150.738 1000.649)"/>
          <path id="path28" class="cls-7" d="M992.408-55.862A45.182,45.182,0,0,1,947.225-10.68a45.181,45.181,0,0,1-45.182-45.182,45.181,45.181,0,0,1,45.182-45.183A45.183,45.183,0,0,1,992.408-55.862Z" transform="translate(411.183 996.361)"/>
          <path id="path30" class="cls-5" d="M965.738-82.532a45.182,45.182,0,0,1-45.181,45.183,45.182,45.182,0,0,1-45.181-45.183,45.181,45.181,0,0,1,45.181-45.182,45.181,45.181,0,0,1,45.181,45.182" transform="translate(403.168 988.346)"/>
          <path id="path32" class="cls-7" d="M965.738-82.532a45.182,45.182,0,0,1-45.181,45.183,45.182,45.182,0,0,1-45.181-45.183,45.181,45.181,0,0,1,45.181-45.182A45.181,45.181,0,0,1,965.738-82.532Z" transform="translate(403.168 988.346)"/>
          <path id="path34" class="cls-3" d="M593.313-666.665a96.036,96.036,0,0,0,95.926,95.926h432.994v-95.926H593.313" transform="translate(318.389 826.355)"/>
          <path id="path36" class="cls-8" d="M481.343-666.665A122.474,122.474,0,0,0,603.677-544.329h552.21" transform="translate(284.735 826.355)"/>
          <path id="path42" class="cls-7" d="M-107.691,368.545V-341.866c0-96.357,63.84-174.75,142.309-174.75s142.307,78.393,142.307,174.75V368.545" transform="translate(107.692 871.455)"/>
          <path id="path44" class="cls-7" d="M-85.169,361.776v-716c0-77.123,50.7-139.871,113.016-139.871s113.015,62.748,113.015,139.871v716" transform="translate(114.461 878.224)"/>
          <path id="path46" class="cls-7" d="M-62.646,354.738V-367.107c0-57.6,37.558-104.464,83.724-104.464S104.8-424.709,104.8-367.107V354.738" transform="translate(121.231 884.994)"/>
          <path id="path48" class="cls-9" d="M952.947-789.45v314.008A109.04,109.04,0,0,1,843.906-366.4h0A109.043,109.043,0,0,1,734.865-475.442V-789.45" transform="translate(360.935 789.45)"/>
          <path id="path50" class="cls-9" d="M933.374-789.45v314.008A93.248,93.248,0,0,1,840.231-382.3a93.246,93.246,0,0,1-93.141-93.141V-789.45" transform="translate(364.609 789.45)"/>
          <path id="path52" class="cls-9" d="M913.8-789.45v314.008A77.331,77.331,0,0,1,836.557-398.2a77.33,77.33,0,0,1-77.241-77.243V-789.45" transform="translate(368.284 789.45)"/>
          <path id="path54" class="cls-9" d="M894.226-789.45v314.008A61.412,61.412,0,0,1,832.883-414.1a61.412,61.412,0,0,1-61.343-61.343V-789.45" transform="translate(371.958 789.45)"/>
          <path id="path56" class="cls-10" d="M17.025-650.186H13.436v-3.591h3.589v3.591" transform="translate(144.098 830.229)"/>
          <path id="path58" class="cls-10" d="M17.025-633.5H13.436v-3.59h3.589v3.59" transform="translate(144.098 835.244)"/>
          <path id="path60" class="cls-10" d="M17.025-616.82H13.436v-3.588h3.589v3.588" transform="translate(144.098 840.259)"/>
          <path id="path62" class="cls-10" d="M17.025-600.134H13.436v-3.591h3.589v3.591" transform="translate(144.098 845.273)"/>
          <path id="path64" class="cls-10" d="M32.131-650.186H28.542v-3.591h3.589v3.591" transform="translate(148.639 830.229)"/>
          <path id="path66" class="cls-10" d="M32.131-633.5H28.542v-3.59h3.589v3.59" transform="translate(148.639 835.244)"/>
          <path id="path68" class="cls-10" d="M32.131-616.82H28.542v-3.588h3.589v3.588" transform="translate(148.639 840.259)"/>
          <path id="path70" class="cls-10" d="M32.131-600.134H28.542v-3.591h3.589v3.591" transform="translate(148.639 845.273)"/>
          <path id="path72" class="cls-10" d="M47.237-650.186h-3.59v-3.591h3.59v3.591" transform="translate(153.179 830.229)"/>
          <path id="path74" class="cls-10" d="M47.237-633.5h-3.59v-3.59h3.59v3.59" transform="translate(153.179 835.244)"/>
          <path id="path76" class="cls-10" d="M47.237-616.82h-3.59v-3.588h3.59v3.588" transform="translate(153.179 840.259)"/>
          <path id="path78" class="cls-10" d="M47.237-600.134h-3.59v-3.591h3.59v3.591" transform="translate(153.179 845.273)"/>
          <path id="path80" class="cls-10" d="M62.342-650.186h-3.59v-3.591h3.59v3.591" transform="translate(157.719 830.229)"/>
          <path id="path82" class="cls-10" d="M62.342-633.5h-3.59v-3.59h3.59v3.59" transform="translate(157.719 835.244)"/>
          <path id="path84" class="cls-10" d="M62.342-616.82h-3.59v-3.588h3.59v3.588" transform="translate(157.719 840.259)"/>
          <path id="path86" class="cls-10" d="M62.342-600.134h-3.59v-3.591h3.59v3.591" transform="translate(157.719 845.273)"/>
          <path id="path88" class="cls-10" d="M77.448-650.186H73.859v-3.591h3.589v3.591" transform="translate(162.259 830.229)"/>
          <path id="path90" class="cls-10" d="M77.448-633.5H73.859v-3.59h3.589v3.59" transform="translate(162.259 835.244)"/>
          <path id="path92" class="cls-10" d="M77.448-616.82H73.859v-3.588h3.589v3.588" transform="translate(162.259 840.259)"/>
          <path id="path94" class="cls-10" d="M77.448-600.134H73.859v-3.591h3.589v3.591" transform="translate(162.259 845.273)"/>
          <path id="path96" class="cls-10" d="M92.554-650.186h-3.59v-3.591h3.59v3.591" transform="translate(166.799 830.229)"/>
          <path id="path98" class="cls-10" d="M92.554-633.5h-3.59v-3.59h3.59v3.59" transform="translate(166.799 835.244)"/>
          <path id="path100" class="cls-10" d="M92.554-616.82h-3.59v-3.588h3.59v3.588" transform="translate(166.799 840.259)"/>
          <path id="path102" class="cls-10" d="M92.554-600.134h-3.59v-3.591h3.59v3.591" transform="translate(166.799 845.273)"/>
          <path id="path104" class="cls-10" d="M107.66-650.186h-3.59v-3.591h3.59v3.591" transform="translate(171.34 830.229)"/>
          <path id="path106" class="cls-10" d="M107.66-633.5h-3.59v-3.59h3.59v3.59" transform="translate(171.34 835.244)"/>
          <path id="path108" class="cls-10" d="M107.66-616.82h-3.59v-3.588h3.59v3.588" transform="translate(171.34 840.259)"/>
          <path id="path110" class="cls-10" d="M107.66-600.134h-3.59v-3.591h3.59v3.591" transform="translate(171.34 845.273)"/>
          <path id="path112" class="cls-10" d="M122.765-650.186h-3.589v-3.591h3.589v3.591" transform="translate(175.88 830.229)"/>
          <path id="path114" class="cls-10" d="M122.765-633.5h-3.589v-3.59h3.589v3.59" transform="translate(175.88 835.244)"/>
          <path id="path116" class="cls-10" d="M122.765-616.82h-3.589v-3.588h3.589v3.588" transform="translate(175.88 840.259)"/>
          <path id="path118" class="cls-10" d="M122.765-600.134h-3.589v-3.591h3.589v3.591" transform="translate(175.88 845.273)"/>
          <path id="path120" class="cls-10" d="M137.871-650.186h-3.59v-3.591h3.59v3.591" transform="translate(180.42 830.229)"/>
          <path id="path122" class="cls-10" d="M137.871-633.5h-3.59v-3.59h3.59v3.59" transform="translate(180.42 835.244)"/>
          <path id="path124" class="cls-10" d="M137.871-616.82h-3.59v-3.588h3.59v3.588" transform="translate(180.42 840.259)"/>
          <path id="path126" class="cls-10" d="M137.871-600.134h-3.59v-3.591h3.59v3.591" transform="translate(180.42 845.273)"/>
          <path id="path128" class="cls-10" d="M152.975-650.186h-3.588v-3.591h3.588v3.591" transform="translate(184.961 830.229)"/>
          <path id="path130" class="cls-10" d="M152.975-633.5h-3.588v-3.59h3.588v3.59" transform="translate(184.961 835.244)"/>
          <path id="path132" class="cls-10" d="M152.975-616.82h-3.588v-3.588h3.588v3.588" transform="translate(184.961 840.259)"/>
          <path id="path134" class="cls-10" d="M152.975-600.134h-3.588v-3.591h3.588v3.591" transform="translate(184.961 845.273)"/>
          <path id="path136" class="cls-10" d="M168.082-650.186h-3.59v-3.591h3.59v3.591" transform="translate(189.501 830.229)"/>
          <path id="path138" class="cls-10" d="M168.082-633.5h-3.59v-3.59h3.59v3.59" transform="translate(189.501 835.244)"/>
          <path id="path140" class="cls-10" d="M168.082-616.82h-3.59v-3.588h3.59v3.588" transform="translate(189.501 840.259)"/>
          <path id="path142" class="cls-10" d="M168.082-600.134h-3.59v-3.591h3.59v3.591" transform="translate(189.501 845.273)"/>
          <path id="path210" class="cls-11" d="M188.354-365.81a4.9,4.9,0,0,1-4.9,4.9,4.9,4.9,0,0,1-4.9-4.9,4.9,4.9,0,0,1,4.9-4.9,4.9,4.9,0,0,1,4.9,4.9" transform="translate(964.729 1483.31)"/>
          <path id="path212" class="cls-11" d="M237.466-365.81a4.9,4.9,0,0,1-4.9,4.9,4.9,4.9,0,0,1-4.9-4.9,4.9,4.9,0,0,1,4.9-4.9,4.9,4.9,0,0,1,4.9,4.9" transform="translate(979.49 1483.31)"/>
          <path id="path214" class="cls-10" d="M286.577-365.81a4.9,4.9,0,0,1-4.9,4.9,4.9,4.9,0,0,1-4.9-4.9,4.9,4.9,0,0,1,4.9-4.9,4.9,4.9,0,0,1,4.9,4.9" transform="translate(994.251 1483.31)"/>
          <path id="path216" class="cls-10" d="M335.688-365.81a4.9,4.9,0,0,1-4.9,4.9,4.9,4.9,0,0,1-4.9-4.9,4.9,4.9,0,0,1,4.9-4.9,4.9,4.9,0,0,1,4.9,4.9" transform="translate(1009.012 1483.31)"/>
          <path id="path218" class="cls-10" d="M188.354-317.128a4.9,4.9,0,0,1-4.9,4.9,4.9,4.9,0,0,1-4.9-4.9,4.9,4.9,0,0,1,4.9-4.9,4.9,4.9,0,0,1,4.9,4.9" transform="translate(964.729 1497.942)"/>
          <path id="path220" class="cls-10" d="M237.466-317.128a4.9,4.9,0,0,1-4.9,4.9,4.9,4.9,0,0,1-4.9-4.9,4.9,4.9,0,0,1,4.9-4.9,4.9,4.9,0,0,1,4.9,4.9" transform="translate(979.49 1497.942)"/>
          <path id="path222" class="cls-10" d="M286.577-317.128a4.9,4.9,0,0,1-4.9,4.9,4.9,4.9,0,0,1-4.9-4.9,4.9,4.9,0,0,1,4.9-4.9,4.9,4.9,0,0,1,4.9,4.9" transform="translate(994.251 1497.942)"/>
          <path id="path224" class="cls-10" d="M335.688-317.128a4.9,4.9,0,0,1-4.9,4.9,4.9,4.9,0,0,1-4.9-4.9,4.9,4.9,0,0,1,4.9-4.9,4.9,4.9,0,0,1,4.9,4.9" transform="translate(1009.012 1497.942)"/>
          <path id="path226" class="cls-10" d="M188.354-268.444a4.9,4.9,0,0,1-4.9,4.9,4.9,4.9,0,0,1-4.9-4.9,4.9,4.9,0,0,1,4.9-4.9,4.894,4.894,0,0,1,4.9,4.9" transform="translate(964.729 1512.575)"/>
          <path id="path228" class="cls-10" d="M237.466-268.444a4.9,4.9,0,0,1-4.9,4.9,4.9,4.9,0,0,1-4.9-4.9,4.9,4.9,0,0,1,4.9-4.9,4.895,4.895,0,0,1,4.9,4.9" transform="translate(979.49 1512.575)"/>
          <path id="path230" class="cls-10" d="M286.577-268.444a4.9,4.9,0,0,1-4.9,4.9,4.9,4.9,0,0,1-4.9-4.9,4.895,4.895,0,0,1,4.9-4.9,4.895,4.895,0,0,1,4.9,4.9" transform="translate(994.251 1512.575)"/>
          <path id="path232" class="cls-10" d="M335.688-268.444a4.9,4.9,0,0,1-4.9,4.9,4.9,4.9,0,0,1-4.9-4.9,4.9,4.9,0,0,1,4.9-4.9,4.894,4.894,0,0,1,4.9,4.9" transform="translate(1009.012 1512.575)"/>
          <path id="path234" class="cls-10" d="M188.354-219.758a4.9,4.9,0,0,1-4.9,4.9,4.9,4.9,0,0,1-4.9-4.9,4.9,4.9,0,0,1,4.9-4.9,4.9,4.9,0,0,1,4.9,4.9" transform="translate(964.729 1527.208)"/>
          <path id="path236" class="cls-10" d="M237.466-219.758a4.9,4.9,0,0,1-4.9,4.9,4.9,4.9,0,0,1-4.9-4.9,4.9,4.9,0,0,1,4.9-4.9,4.9,4.9,0,0,1,4.9,4.9" transform="translate(979.49 1527.208)"/>
          <path id="path238" class="cls-10" d="M286.577-219.758a4.9,4.9,0,0,1-4.9,4.9,4.9,4.9,0,0,1-4.9-4.9,4.9,4.9,0,0,1,4.9-4.9,4.9,4.9,0,0,1,4.9,4.9" transform="translate(994.251 1527.208)"/>
          <path id="path240" class="cls-10" d="M335.688-219.758a4.9,4.9,0,0,1-4.9,4.9,4.9,4.9,0,0,1-4.9-4.9,4.9,4.9,0,0,1,4.9-4.9,4.9,4.9,0,0,1,4.9,4.9" transform="translate(1009.012 1527.208)"/>
          <path id="path242" class="cls-10" d="M945.536-619.784a3.852,3.852,0,0,1-3.853,3.851,3.852,3.852,0,0,1-3.853-3.851,3.853,3.853,0,0,1,3.853-3.853,3.853,3.853,0,0,1,3.853,3.853" transform="translate(421.939 839.288)"/>
          <path id="path244" class="cls-10" d="M984.18-619.784a3.852,3.852,0,0,1-3.853,3.851,3.854,3.854,0,0,1-3.855-3.851,3.854,3.854,0,0,1,3.855-3.853,3.852,3.852,0,0,1,3.853,3.853" transform="translate(433.554 839.288)"/>
          <path id="path246" class="cls-10" d="M945.536-581.477a3.853,3.853,0,0,1-3.853,3.853,3.852,3.852,0,0,1-3.853-3.853,3.855,3.855,0,0,1,3.853-3.855,3.855,3.855,0,0,1,3.853,3.855" transform="translate(421.939 850.801)"/>
          <path id="path248" class="cls-10" d="M984.18-581.477a3.853,3.853,0,0,1-3.853,3.853,3.854,3.854,0,0,1-3.855-3.853,3.857,3.857,0,0,1,3.855-3.855,3.855,3.855,0,0,1,3.853,3.855" transform="translate(433.554 850.801)"/>
          <path id="path250" class="cls-10" d="M945.536-543.169a3.853,3.853,0,0,1-3.853,3.851,3.853,3.853,0,0,1-3.853-3.851,3.854,3.854,0,0,1,3.853-3.855,3.854,3.854,0,0,1,3.853,3.855" transform="translate(421.939 862.315)"/>
          <path id="path252" class="cls-10" d="M984.18-543.169a3.853,3.853,0,0,1-3.853,3.851,3.855,3.855,0,0,1-3.855-3.851,3.856,3.856,0,0,1,3.855-3.855,3.854,3.854,0,0,1,3.853,3.855" transform="translate(433.554 862.315)"/>
          <path id="path254" class="cls-10" d="M945.536-504.863a3.854,3.854,0,0,1-3.853,3.853,3.854,3.854,0,0,1-3.853-3.853,3.855,3.855,0,0,1,3.853-3.855,3.855,3.855,0,0,1,3.853,3.855" transform="translate(421.939 873.829)"/>
          <path id="path256" class="cls-10" d="M984.18-504.863a3.854,3.854,0,0,1-3.853,3.853,3.855,3.855,0,0,1-3.855-3.853,3.857,3.857,0,0,1,3.855-3.855,3.855,3.855,0,0,1,3.853,3.855" transform="translate(433.554 873.829)"/>
          <path id="path258" class="cls-10" d="M945.536-466.555a3.853,3.853,0,0,1-3.853,3.851,3.853,3.853,0,0,1-3.853-3.851,3.854,3.854,0,0,1,3.853-3.855,3.854,3.854,0,0,1,3.853,3.855" transform="translate(421.939 885.343)"/>
          <path id="path260" class="cls-10" d="M984.18-466.555a3.853,3.853,0,0,1-3.853,3.851,3.855,3.855,0,0,1-3.855-3.851,3.855,3.855,0,0,1,3.855-3.855,3.854,3.854,0,0,1,3.853,3.855" transform="translate(433.554 885.343)"/>
          <path id="path262" class="cls-10" d="M945.536-428.25a3.854,3.854,0,0,1-3.853,3.855,3.854,3.854,0,0,1-3.853-3.855,3.855,3.855,0,0,1,3.853-3.853,3.855,3.855,0,0,1,3.853,3.853" transform="translate(421.939 896.856)"/>
          <path id="path264" class="cls-10" d="M984.18-428.25a3.854,3.854,0,0,1-3.853,3.855,3.855,3.855,0,0,1-3.855-3.855,3.856,3.856,0,0,1,3.855-3.853,3.855,3.855,0,0,1,3.853,3.853" transform="translate(433.554 896.856)"/>
          <path id="path266" class="cls-10" d="M945.536-389.942a3.854,3.854,0,0,1-3.853,3.853,3.854,3.854,0,0,1-3.853-3.853,3.854,3.854,0,0,1,3.853-3.853,3.854,3.854,0,0,1,3.853,3.853" transform="translate(421.939 908.37)"/>
          <path id="path268" class="cls-10" d="M984.18-389.942a3.854,3.854,0,0,1-3.853,3.853,3.855,3.855,0,0,1-3.855-3.853,3.855,3.855,0,0,1,3.855-3.853,3.854,3.854,0,0,1,3.853,3.853" transform="translate(433.554 908.37)"/>
          <path id="path270" class="cls-12" d="M433.64-21.324H0V6.409H433.64V-21.324" transform="translate(285.06 1233.323)"/>
          <path id="path272" class="cls-10" d="M871.267-666.665H669.534v27.731H871.267v-27.731" transform="translate(341.299 826.355)"/>
        </g>
      </g>
      <path id="Path_7" data-name="Path 7" class="cls-5" d="M74.5,0A74.5,74.5,0,1,1,0,74.5,74.5,74.5,0,0,1,74.5,0Z" transform="translate(1872 363)"/>
    </g>
  </g>
</svg>
