<svg xmlns="http://www.w3.org/2000/svg" xmlns:xlink="http://www.w3.org/1999/xlink" width="1571" height="1080" viewBox="0 0 1571 1080">
  <defs>
    <clipPath id="clip-path">
      <rect id="Rectangle_1" data-name="Rectangle 1" width="1470" height="1080" fill="#fff" stroke="#707070" stroke-width="1"/>
    </clipPath>
  </defs>
  <g id="contactmeBackground" transform="translate(-450)">
    <circle id="Ellipse_2" data-name="Ellipse 2" cx="74.5" cy="74.5" r="74.5" transform="translate(1872 363)" fill="#ffdab9"/>
    <g id="Mask_Group_1" data-name="Mask Group 1" transform="translate(450)" clip-path="url(#clip-path)">
      <g id="g10" transform="translate(29.552 -160)">
        <g id="g12">
          <path id="path16" d="M111.083,263.824V-82.911c0-47.028,32.765-85.292,73.037-85.292s73.034,38.264,73.034,85.292V263.824" transform="translate(173.448 976.176)" fill="#e7e7e6"/>
          <path id="path20" d="M1274.693-123.874c0,107.355-87.03,194.385-194.386,194.385S885.922-16.518,885.922-123.874s87.03-194.386,194.385-194.386S1274.693-231.229,1274.693-123.874Z" transform="translate(406.338 931.074)" fill="none" stroke="#ee3b3d" stroke-miterlimit="10" stroke-width="2.667"/>
          <path id="path22" d="M940.572-486.447a37.386,37.386,0,0,1-37.385,37.387A37.386,37.386,0,0,1,865.8-486.447a37.384,37.384,0,0,1,37.383-37.383,37.384,37.384,0,0,1,37.385,37.383" transform="translate(400.291 869.286)" fill="#ffdab9"/>
          <path id="path24" d="M88.78-60.15A26.627,26.627,0,0,1,62.153-33.523,26.627,26.627,0,0,1,35.526-60.15,26.627,26.627,0,0,1,62.153-86.777,26.627,26.627,0,0,1,88.78-60.15" transform="translate(150.738 1000.649)" fill="#f9aa2f"/>
          <path id="path28" d="M992.408-55.862A45.182,45.182,0,0,1,947.225-10.68a45.181,45.181,0,0,1-45.182-45.182,45.181,45.181,0,0,1,45.182-45.183A45.183,45.183,0,0,1,992.408-55.862Z" transform="translate(411.183 996.361)" fill="none" stroke="#040606" stroke-miterlimit="10" stroke-width="1.333"/>
          <path id="path30" d="M965.738-82.532a45.182,45.182,0,0,1-45.181,45.183,45.182,45.182,0,0,1-45.181-45.183,45.181,45.181,0,0,1,45.181-45.182,45.181,45.181,0,0,1,45.181,45.182" transform="translate(403.168 988.346)" fill="#ffdab9"/>
          <path id="path32" d="M965.738-82.532a45.182,45.182,0,0,1-45.181,45.183,45.182,45.182,0,0,1-45.181-45.183,45.181,45.181,0,0,1,45.181-45.182A45.181,45.181,0,0,1,965.738-82.532Z" transform="translate(403.168 988.346)" fill="none" stroke="#040606" stroke-miterlimit="10" stroke-width="1.333"/>
          <path id="path34" d="M593.313-666.665a96.036,96.036,0,0,0,95.926,95.926h432.994v-95.926H593.313" transform="translate(318.389 826.355)" fill="#e7e7e6"/>
          <path id="path36" d="M481.343-666.665A122.474,122.474,0,0,0,603.677-544.329h552.21" transform="translate(284.735 826.355)" fill="none" stroke="#040606" stroke-miterlimit="10" stroke-width="1.051"/>
          <path id="path42" d="M-107.691,368.545V-341.866c0-96.357,63.84-174.75,142.309-174.75s142.307,78.393,142.307,174.75V368.545" transform="translate(107.692 871.455)" fill="none" stroke="#040606" stroke-miterlimit="10" stroke-width="1.333"/>
          <path id="path44" d="M-85.169,361.776v-716c0-77.123,50.7-139.871,113.016-139.871s113.015,62.748,113.015,139.871v716" transform="translate(114.461 878.224)" fill="none" stroke="#040606" stroke-miterlimit="10" stroke-width="1.333"/>
          <path id="path46" d="M-62.646,354.738V-367.107c0-57.6,37.558-104.464,83.724-104.464S104.8-424.709,104.8-367.107V354.738" transform="translate(121.231 884.994)" fill="none" stroke="#040606" stroke-miterlimit="10" stroke-width="1.333"/>
          <path id="path48" d="M952.947-789.45v314.008A109.04,109.04,0,0,1,843.906-366.4h0A109.043,109.043,0,0,1,734.865-475.442V-789.45" transform="translate(360.935 789.45)" fill="none" stroke="#040606" stroke-miterlimit="10" stroke-width="1.11"/>
          <path id="path50" d="M933.374-789.45v314.008A93.248,93.248,0,0,1,840.231-382.3a93.246,93.246,0,0,1-93.141-93.141V-789.45" transform="translate(364.609 789.45)" fill="none" stroke="#040606" stroke-miterlimit="10" stroke-width="1.11"/>
          <path id="path52" d="M913.8-789.45v314.008A77.331,77.331,0,0,1,836.557-398.2a77.33,77.33,0,0,1-77.241-77.243V-789.45" transform="translate(368.284 789.45)" fill="none" stroke="#040606" stroke-miterlimit="10" stroke-width="1.11"/>
          <path id="path54" d="M894.226-789.45v314.008A61.412,61.412,0,0,1,832.883-414.1a61.412,61.412,0,0,1-61.343-61.343V-789.45" transform="translate(371.958 789.45)" fill="none" stroke="#040606" stroke-miterlimit="10" stroke-width="1.11"/>
          <path id="path56" d="M17.025-650.186H13.436v-3.591h3.589v3.591" transform="translate(144.098 830.229)" fill="#040606"/>
          <path id="path58" d="M17.025-633.5H13.436v-3.59h3.589v3.59" transform="translate(144.098 835.244)" fill="#040606"/>
          <path id="path60" d="M17.025-616.82H13.436v-3.588h3.589v3.588" transform="translate(144.098 840.259)" fill="#040606"/>
          <path id="path62" d="M17.025-600.134H13.436v-3.591h3.589v3.591" transform="translate(144.098 845.273)" fill="#040606"/>
          <path id="path64" d="M32.131-650.186H28.542v-3.591h3.589v3.591" transform="translate(148.639 830.229)" fill="#040606"/>
          <path id="path66" d="M32.131-633.5H28.542v-3.59h3.589v3.59" transform="translate(148.639 835.244)" fill="#040606"/>
          <path id="path68" d="M32.131-616.82H28.542v-3.588h3.589v3.588" transform="translate(148.639 840.259)" fill="#040606"/>
          <path id="path70" d="M32.131-600.134H28.542v-3.591h3.589v3.591" transform="translate(148.639 845.273)" fill="#040606"/>
          <path id="path72" d="M47.237-650.186h-3.59v-3.591h3.59v3.591" transform="translate(153.179 830.229)" fill="#040606"/>
          <path id="path74" d="M47.237-633.5h-3.59v-3.59h3.59v3.59" transform="translate(153.179 835.244)" fill="#040606"/>
          <path id="path76" d="M47.237-616.82h-3.59v-3.588h3.59v3.588" transform="translate(153.179 840.259)" fill="#040606"/>
          <path id="path78" d="M47.237-600.134h-3.59v-3.591h3.59v3.591" transform="translate(153.179 845.273)" fill="#040606"/>
          <path id="path80" d="M62.342-650.186h-3.59v-3.591h3.59v3.591" transform="translate(157.719 830.229)" fill="#040606"/>
          <path id="path82" d="M62.342-633.5h-3.59v-3.59h3.59v3.59" transform="translate(157.719 835.244)" fill="#040606"/>
          <path id="path84" d="M62.342-616.82h-3.59v-3.588h3.59v3.588" transform="translate(157.719 840.259)" fill="#040606"/>
          <path id="path86" d="M62.342-600.134h-3.59v-3.591h3.59v3.591" transform="translate(157.719 845.273)" fill="#040606"/>
          <path id="path88" d="M77.448-650.186H73.859v-3.591h3.589v3.591" transform="translate(162.259 830.229)" fill="#040606"/>
          <path id="path90" d="M77.448-633.5H73.859v-3.59h3.589v3.59" transform="translate(162.259 835.244)" fill="#040606"/>
          <path id="path92" d="M77.448-616.82H73.859v-3.588h3.589v3.588" transform="translate(162.259 840.259)" fill="#040606"/>
          <path id="path94" d="M77.448-600.134H73.859v-3.591h3.589v3.591" transform="translate(162.259 845.273)" fill="#040606"/>
          <path id="path96" d="M92.554-650.186h-3.59v-3.591h3.59v3.591" transform="translate(166.799 830.229)" fill="#040606"/>
          <path id="path98" d="M92.554-633.5h-3.59v-3.59h3.59v3.59" transform="translate(166.799 835.244)" fill="#040606"/>
          <path id="path100" d="M92.554-616.82h-3.59v-3.588h3.59v3.588" transform="translate(166.799 840.259)" fill="#040606"/>
          <path id="path102" d="M92.554-600.134h-3.59v-3.591h3.59v3.591" transform="translate(166.799 845.273)" fill="#040606"/>
          <path id="path104" d="M107.66-650.186h-3.59v-3.591h3.59v3.591" transform="translate(171.34 830.229)" fill="#040606"/>
          <path id="path106" d="M107.66-633.5h-3.59v-3.59h3.59v3.59" transform="translate(171.34 835.244)" fill="#040606"/>
          <path id="path108" d="M107.66-616.82h-3.59v-3.588h3.59v3.588" transform="translate(171.34 840.259)" fill="#040606"/>
          <path id="path110" d="M107.66-600.134h-3.59v-3.591h3.59v3.591" transform="translate(171.34 845.273)" fill="#040606"/>
          <path id="path112" d="M122.765-650.186h-3.589v-3.591h3.589v3.591" transform="translate(175.88 830.229)" fill="#040606"/>
          <path id="path114" d="M122.765-633.5h-3.589v-3.59h3.589v3.59" transform="translate(175.88 835.244)" fill="#040606"/>
          <path id="path116" d="M122.765-616.82h-3.589v-3.588h3.589v3.588" transform="translate(175.88 840.259)" fill="#040606"/>
          <path id="path118" d="M122.765-600.134h-3.589v-3.591h3.589v3.591" transform="translate(175.88 845.273)" fill="#040606"/>
          <path id="path120" d="M137.871-650.186h-3.59v-3.591h3.59v3.591" transform="translate(180.42 830.229)" fill="#040606"/>
          <path id="path122" d="M137.871-633.5h-3.59v-3.59h3.59v3.59" transform="translate(180.42 835.244)" fill="#040606"/>
          <path id="path124" d="M137.871-616.82h-3.59v-3.588h3.59v3.588" transform="translate(180.42 840.259)" fill="#040606"/>
          <path id="path126" d="M137.871-600.134h-3.59v-3.591h3.59v3.591" transform="translate(180.42 845.273)" fill="#040606"/>
          <path id="path128" d="M152.975-650.186h-3.588v-3.591h3.588v3.591" transform="translate(184.961 830.229)" fill="#040606"/>
          <path id="path130" d="M152.975-633.5h-3.588v-3.59h3.588v3.59" transform="translate(184.961 835.244)" fill="#040606"/>
          <path id="path132" d="M152.975-616.82h-3.588v-3.588h3.588v3.588" transform="translate(184.961 840.259)" fill="#040606"/>
          <path id="path134" d="M152.975-600.134h-3.588v-3.591h3.588v3.591" transform="translate(184.961 845.273)" fill="#040606"/>
          <path id="path136" d="M168.082-650.186h-3.59v-3.591h3.59v3.591" transform="translate(189.501 830.229)" fill="#040606"/>
          <path id="path138" d="M168.082-633.5h-3.59v-3.59h3.59v3.59" transform="translate(189.501 835.244)" fill="#040606"/>
          <path id="path140" d="M168.082-616.82h-3.59v-3.588h3.59v3.588" transform="translate(189.501 840.259)" fill="#040606"/>
          <path id="path142" d="M168.082-600.134h-3.59v-3.591h3.59v3.591" transform="translate(189.501 845.273)" fill="#040606"/>
          <path id="path210" d="M188.354-365.81a4.9,4.9,0,0,1-4.9,4.9,4.9,4.9,0,0,1-4.9-4.9,4.9,4.9,0,0,1,4.9-4.9,4.9,4.9,0,0,1,4.9,4.9" transform="translate(964.729 1483.31)" fill="#fff"/>
          <path id="path212" d="M237.466-365.81a4.9,4.9,0,0,1-4.9,4.9,4.9,4.9,0,0,1-4.9-4.9,4.9,4.9,0,0,1,4.9-4.9,4.9,4.9,0,0,1,4.9,4.9" transform="translate(979.49 1483.31)" fill="#fff"/>
          <path id="path214" d="M286.577-365.81a4.9,4.9,0,0,1-4.9,4.9,4.9,4.9,0,0,1-4.9-4.9,4.9,4.9,0,0,1,4.9-4.9,4.9,4.9,0,0,1,4.9,4.9" transform="translate(994.251 1483.31)" fill="#040606"/>
          <path id="path216" d="M335.688-365.81a4.9,4.9,0,0,1-4.9,4.9,4.9,4.9,0,0,1-4.9-4.9,4.9,4.9,0,0,1,4.9-4.9,4.9,4.9,0,0,1,4.9,4.9" transform="translate(1009.012 1483.31)" fill="#040606"/>
          <path id="path218" d="M188.354-317.128a4.9,4.9,0,0,1-4.9,4.9,4.9,4.9,0,0,1-4.9-4.9,4.9,4.9,0,0,1,4.9-4.9,4.9,4.9,0,0,1,4.9,4.9" transform="translate(964.729 1497.942)" fill="#040606"/>
          <path id="path220" d="M237.466-317.128a4.9,4.9,0,0,1-4.9,4.9,4.9,4.9,0,0,1-4.9-4.9,4.9,4.9,0,0,1,4.9-4.9,4.9,4.9,0,0,1,4.9,4.9" transform="translate(979.49 1497.942)" fill="#040606"/>
          <path id="path222" d="M286.577-317.128a4.9,4.9,0,0,1-4.9,4.9,4.9,4.9,0,0,1-4.9-4.9,4.9,4.9,0,0,1,4.9-4.9,4.9,4.9,0,0,1,4.9,4.9" transform="translate(994.251 1497.942)" fill="#040606"/>
          <path id="path224" d="M335.688-317.128a4.9,4.9,0,0,1-4.9,4.9,4.9,4.9,0,0,1-4.9-4.9,4.9,4.9,0,0,1,4.9-4.9,4.9,4.9,0,0,1,4.9,4.9" transform="translate(1009.012 1497.942)" fill="#040606"/>
          <path id="path226" d="M188.354-268.444a4.9,4.9,0,0,1-4.9,4.9,4.9,4.9,0,0,1-4.9-4.9,4.9,4.9,0,0,1,4.9-4.9,4.894,4.894,0,0,1,4.9,4.9" transform="translate(964.729 1512.575)" fill="#040606"/>
          <path id="path228" d="M237.466-268.444a4.9,4.9,0,0,1-4.9,4.9,4.9,4.9,0,0,1-4.9-4.9,4.9,4.9,0,0,1,4.9-4.9,4.895,4.895,0,0,1,4.9,4.9" transform="translate(979.49 1512.575)" fill="#040606"/>
          <path id="path230" d="M286.577-268.444a4.9,4.9,0,0,1-4.9,4.9,4.9,4.9,0,0,1-4.9-4.9,4.895,4.895,0,0,1,4.9-4.9,4.895,4.895,0,0,1,4.9,4.9" transform="translate(994.251 1512.575)" fill="#040606"/>
          <path id="path232" d="M335.688-268.444a4.9,4.9,0,0,1-4.9,4.9,4.9,4.9,0,0,1-4.9-4.9,4.9,4.9,0,0,1,4.9-4.9,4.894,4.894,0,0,1,4.9,4.9" transform="translate(1009.012 1512.575)" fill="#040606"/>
          <path id="path234" d="M188.354-219.758a4.9,4.9,0,0,1-4.9,4.9,4.9,4.9,0,0,1-4.9-4.9,4.9,4.9,0,0,1,4.9-4.9,4.9,4.9,0,0,1,4.9,4.9" transform="translate(964.729 1527.208)" fill="#040606"/>
          <path id="path236" d="M237.466-219.758a4.9,4.9,0,0,1-4.9,4.9,4.9,4.9,0,0,1-4.9-4.9,4.9,4.9,0,0,1,4.9-4.9,4.9,4.9,0,0,1,4.9,4.9" transform="translate(979.49 1527.208)" fill="#040606"/>
          <path id="path238" d="M286.577-219.758a4.9,4.9,0,0,1-4.9,4.9,4.9,4.9,0,0,1-4.9-4.9,4.9,4.9,0,0,1,4.9-4.9,4.9,4.9,0,0,1,4.9,4.9" transform="translate(994.251 1527.208)" fill="#040606"/>
          <path id="path240" d="M335.688-219.758a4.9,4.9,0,0,1-4.9,4.9,4.9,4.9,0,0,1-4.9-4.9,4.9,4.9,0,0,1,4.9-4.9,4.9,4.9,0,0,1,4.9,4.9" transform="translate(1009.012 1527.208)" fill="#040606"/>
          <path id="path242" d="M945.536-619.784a3.852,3.852,0,0,1-3.853,3.851,3.852,3.852,0,0,1-3.853-3.851,3.853,3.853,0,0,1,3.853-3.853,3.853,3.853,0,0,1,3.853,3.853" transform="translate(421.939 839.288)" fill="#040606"/>
          <path id="path244" d="M984.18-619.784a3.852,3.852,0,0,1-3.853,3.851,3.854,3.854,0,0,1-3.855-3.851,3.854,3.854,0,0,1,3.855-3.853,3.852,3.852,0,0,1,3.853,3.853" transform="translate(433.554 839.288)" fill="#040606"/>
          <path id="path246" d="M945.536-581.477a3.853,3.853,0,0,1-3.853,3.853,3.852,3.852,0,0,1-3.853-3.853,3.855,3.855,0,0,1,3.853-3.855,3.855,3.855,0,0,1,3.853,3.855" transform="translate(421.939 850.801)" fill="#040606"/>
          <path id="path248" d="M984.18-581.477a3.853,3.853,0,0,1-3.853,3.853,3.854,3.854,0,0,1-3.855-3.853,3.857,3.857,0,0,1,3.855-3.855,3.855,3.855,0,0,1,3.853,3.855" transform="translate(433.554 850.801)" fill="#040606"/>
          <path id="path250" d="M945.536-543.169a3.853,3.853,0,0,1-3.853,3.851,3.853,3.853,0,0,1-3.853-3.851,3.854,3.854,0,0,1,3.853-3.855,3.854,3.854,0,0,1,3.853,3.855" transform="translate(421.939 862.315)" fill="#040606"/>
          <path id="path252" d="M984.18-543.169a3.853,3.853,0,0,1-3.853,3.851,3.855,3.855,0,0,1-3.855-3.851,3.856,3.856,0,0,1,3.855-3.855,3.854,3.854,0,0,1,3.853,3.855" transform="translate(433.554 862.315)" fill="#040606"/>
          <path id="path254" d="M945.536-504.863a3.854,3.854,0,0,1-3.853,3.853,3.854,3.854,0,0,1-3.853-3.853,3.855,3.855,0,0,1,3.853-3.855,3.855,3.855,0,0,1,3.853,3.855" transform="translate(421.939 873.829)" fill="#040606"/>
          <path id="path256" d="M984.18-504.863a3.854,3.854,0,0,1-3.853,3.853,3.855,3.855,0,0,1-3.855-3.853,3.857,3.857,0,0,1,3.855-3.855,3.855,3.855,0,0,1,3.853,3.855" transform="translate(433.554 873.829)" fill="#040606"/>
          <path id="path258" d="M945.536-466.555a3.853,3.853,0,0,1-3.853,3.851,3.853,3.853,0,0,1-3.853-3.851,3.854,3.854,0,0,1,3.853-3.855,3.854,3.854,0,0,1,3.853,3.855" transform="translate(421.939 885.343)" fill="#040606"/>
          <path id="path260" d="M984.18-466.555a3.853,3.853,0,0,1-3.853,3.851,3.855,3.855,0,0,1-3.855-3.851,3.855,3.855,0,0,1,3.855-3.855,3.854,3.854,0,0,1,3.853,3.855" transform="translate(433.554 885.343)" fill="#040606"/>
          <path id="path262" d="M945.536-428.25a3.854,3.854,0,0,1-3.853,3.855,3.854,3.854,0,0,1-3.853-3.855,3.855,3.855,0,0,1,3.853-3.853,3.855,3.855,0,0,1,3.853,3.853" transform="translate(421.939 896.856)" fill="#040606"/>
          <path id="path264" d="M984.18-428.25a3.854,3.854,0,0,1-3.853,3.855,3.855,3.855,0,0,1-3.855-3.855,3.856,3.856,0,0,1,3.855-3.853,3.855,3.855,0,0,1,3.853,3.853" transform="translate(433.554 896.856)" fill="#040606"/>
          <path id="path266" d="M945.536-389.942a3.854,3.854,0,0,1-3.853,3.853,3.854,3.854,0,0,1-3.853-3.853,3.854,3.854,0,0,1,3.853-3.853,3.854,3.854,0,0,1,3.853,3.853" transform="translate(421.939 908.37)" fill="#040606"/>
          <path id="path268" d="M984.18-389.942a3.854,3.854,0,0,1-3.853,3.853,3.855,3.855,0,0,1-3.855-3.853,3.855,3.855,0,0,1,3.855-3.853,3.854,3.854,0,0,1,3.853,3.853" transform="translate(433.554 908.37)" fill="#040606"/>
          <path id="path270" d="M433.64-21.324H0V6.409H433.64V-21.324" transform="translate(285.06 1233.323)" fill="#454141"/>
          <path id="path272" d="M871.267-666.665H669.534v27.731H871.267v-27.731" transform="translate(341.299 826.355)" fill="#040606"/>
        </g>
      </g>
    </g>
  </g>
</svg>
