<svg xmlns="http://www.w3.org/2000/svg" width="777" height="1010.686" viewBox="0 0 777 1010.686">
  <g id="Girl" transform="translate(-1112 -69.774)">
    <g id="circle" transform="translate(1779 828.849)">
      <circle id="Ellipse_1" data-name="Ellipse 1" cx="388.5" cy="388.5" r="388.5" transform="translate(-667 -676.849)" fill="#ffdab9"/>
    </g>
    <g id="g10" transform="translate(1119.842 680.413)">
      <g id="g12" transform="translate(228.762 -610.639)">
        <path id="path58" d="M367.081-606.859s-72.064,1.374-96.708,77.186c-16.35,50.3-13.485,81.5,9.973,202.855s-10.36,148.171-9.692,174.009S309.241-82.76,376.446-97.647s95.475-319.4,84.048-378.041-30.912-155.256-93.413-131.171" transform="translate(-212.71 610.639)" fill="#864443"/>
        <path id="path60" d="M384.275-522.417s4.959-.563,6.313-.563,6.993,9.472,2.934,21.767-15.152,42.83-20.883,31.225-2.124-16.114-2.124-16.114" transform="translate(-156.598 655.621)" fill="#fcd093"/>
        <path id="path62" d="M292.689-519.547c-.337-.224-8.008-4.059-10.489-3.607s-8.231,8.683-3.72,23.006,15.563,42.293,20.3,30.227" transform="translate(-204.109 655.513)" fill="#fcd093"/>
        <path id="path64" d="M261.78-171.447c-.3,1.2-16.842,51.128-16.542,76.089S248.246,9.3,257.569,48.4s23.46,113.082,23.46,113.082h93.982s-3.157-100.753-3.157-108.271-5.413-112.478-5.413-112.478L342.682-182.273l-80.9,10.826" transform="translate(-220.309 830.453)" fill="#94a7bf"/>
        <path id="path66" d="M361.191-177.5S343.746-92.994,341.04-39.16s-11.728,207.819-11.728,207.819l97.139-1.2s23.76-120.3,24.963-129.624,11.127-124.507,11.127-140.147-12.632-65.561-12.632-65.561L361.191-177.5" transform="translate(-177.165 832.9)" fill="#94a7bf"/>
        <path id="path68" d="M258.951-159.608S335.341-53.445,349.477-50.737s35.187,1.8,49.623,0,61.954-135.938,61.954-135.938L287.524-194.8l-28.572,35.188" transform="translate(-213.27 824.027)" fill="#94a7bf"/>
        <path id="path70" d="M333.155-67.02l12.273-27.04v-65.864a1.009,1.009,0,0,0-1.009-1.009,1.008,1.008,0,0,0-1.009,1.009V-94.5L331.319-67.853a1.01,1.01,0,0,0,.5,1.336,1.008,1.008,0,0,0,1.336-.5" transform="translate(-176.182 841.403)" fill="#516c90"/>
        <path id="path72" d="M332.364-95.5l53.121-6.769a1.01,1.01,0,0,0,.874-1.128,1.011,1.011,0,0,0-1.13-.874L332.11-97.506a1.007,1.007,0,0,0-.874,1.128,1.01,1.01,0,0,0,1.128.874" transform="translate(-176.182 870.473)" fill="#516c90"/>
        <path id="path74" d="M350.105-93.244l-51.655-19.174a1.008,1.008,0,0,0-1.3.595,1.009,1.009,0,0,0,.593,1.3L349.4-91.353a1.01,1.01,0,0,0,1.3-.593,1.009,1.009,0,0,0-.6-1.3" transform="translate(-193.698 866.265)" fill="#516c90"/>
        <path id="path76" d="M333.817-67.456l-1.685-92.487a1.009,1.009,0,0,0-1.027-.991,1.009,1.009,0,0,0-.991,1.027L331.8-67.417a1.007,1.007,0,0,0,1.027.988,1.009,1.009,0,0,0,.991-1.027" transform="translate(-176.753 841.403)" fill="#516c90"/>
        <path id="path78" d="M333.862-88.287,366.7-117.426a1.007,1.007,0,0,0,.087-1.422,1.009,1.009,0,0,0-1.424-.087L332.522-89.8a1.01,1.01,0,0,0-.085,1.424,1.011,1.011,0,0,0,1.424.085" transform="translate(-175.692 862.824)" fill="#516c90"/>
        <path id="path80" d="M258.718-127.321c0,.01-1.273,27.925-1.273,58.053,0,21.7.656,44.519,2.938,58.992C265.8,24.044,289.257,151.7,289.259,151.7a1.008,1.008,0,1,0,1.983-.365c0-.006-.367-1.993-1.019-5.552-4.562-24.9-23.117-126.408-27.848-156.376-2.25-14.231-2.915-37.032-2.913-58.677,0-15.037.319-29.528.636-40.26.159-5.367.317-9.793.436-12.876s.2-4.82.2-4.824a1,1,0,0,0-.96-1.053,1,1,0,0,0-1.053.96" transform="translate(-214.043 858.158)" fill="#516c90"/>
        <path id="path82" d="M419.337-140.585s.176,1.695.438,4.634c.789,8.819,2.365,28.8,2.365,47.391,0,12.383-.712,24.182-2.77,31.508-1.61,5.758-4.558,21.991-8.116,43.244C400.592,49.9,384.607,158.254,384.605,158.258a1.009,1.009,0,0,0,2,.295c0-.01.444-3.01,1.233-8.321,2.762-18.589,9.757-65.369,16.749-109.965,3.5-22.3,6.995-44.052,9.961-61.457s5.413-30.5,6.767-35.319c2.153-7.715,2.839-19.574,2.845-32.05,0-24.934-2.81-52.215-2.812-52.233a1.01,1.01,0,0,0-1.108-.9,1.01,1.01,0,0,0-.9,1.108" transform="translate(-148.797 851.273)" fill="#516c90"/>
        <path id="path84" d="M322.7-405.824,271.269-368.83s10.425,8.254,7.217,30.374-16.54,47.22-12.63,73.083,21.652,91.728,21.051,98.344S250.366-45.376,249.014-38.159c2.647,6.5,64.51,23.008,123.726,9.692,53.266,11.885,115.134-1.332,124.39-4.277-4.511-26.165-30.227-96.994-34.284-116.391s21.2-118.194,20.3-130.826-13.983-49.173-13.983-65.412,5.637-22.1,8.572-25.939-55.264-45.8-55.264-45.8L322.7-405.824" transform="translate(-218.369 709.946)" fill="#1b2345"/>
        <path id="path102" d="M322.7-405.824,271.269-368.83s10.425,8.254,7.217,30.374-16.54,47.22-12.63,73.083,21.652,91.728,21.051,98.344S250.366-45.376,249.014-38.159c2.647,6.5,64.51,23.008,123.726,9.692,53.266,11.885,115.134-1.332,124.39-4.277-4.511-26.165-30.227-96.994-34.284-116.391s21.2-118.194,20.3-130.826-13.983-49.173-13.983-65.412,5.637-22.1,8.572-25.939-55.264-45.8-55.264-45.8L322.7-405.824" transform="translate(-218.369 709.946)" fill="#ab8aa6"/>
        <path id="path104" d="M313.816-477.478s2.03,32.03,0,39.925-5.639,18.045-22.332,25.261,39.85,82.555,61.129,96.234c8.946-2.851,57.517-92.172,57.517-92.172s-9.024-11.129-18.948-24.061c1.505-22.857,1.505-45.186,1.505-45.186H313.816" transform="translate(-198.135 678.97)" fill="#fcd093"/>
        <path id="path106" d="M311.367-409.643l16.241,3.006a.907.907,0,0,0,1.057-.728.906.906,0,0,0-.726-1.057L311.7-411.428a.906.906,0,0,0-1.057.726.908.908,0,0,0,.726,1.059" transform="translate(-186.754 712.855)" fill="#bf6155"/>
        <path id="path108" d="M339.873-406.832l24.2-1.806a.905.905,0,0,0,.837-.973.905.905,0,0,0-.972-.837l-24.2,1.8a.907.907,0,0,0-.837.972.908.908,0,0,0,.972.839" transform="translate(-172.246 713.365)" fill="#bf6155"/>
        <path id="path110" d="M353.579-323.727c-3.706-12.856-49.518-106.636-41.168-117.591,2.952-3.874,2.72-17.978,2.72-17.978s-24.146,28.237-27.255,41.321,24.029,86.128,30.043,88.232,4.675-16.84,13.834-9.323a238.153,238.153,0,0,0,21.826,15.339" transform="translate(-198.554 688.3)" fill="#1b2345"/>
        <path id="path112" d="M330.782-325.39c0-18.947,47.989-107.744,38.676-117.894l.7-12.771s23.216,23.333,26.325,36.416-24.027,86.128-30.043,88.232-4.673-16.84-13.832-9.323a238.361,238.361,0,0,1-21.828,15.339" transform="translate(-176.411 689.963)" fill="#1b2345"/>
        <path id="path130" d="M353.579-323.727c-3.706-12.856-49.768-105.756-41.418-116.713,2.952-3.874,2.97-18.856,2.97-18.856s-24.146,28.237-27.255,41.321,24.029,86.128,30.043,88.232,4.675-16.84,13.834-9.323a238.16,238.16,0,0,0,21.826,15.339" transform="translate(-198.554 688.3)"/>
        <path id="path148" d="M330.782-325.39c0-18.947,47.989-107.744,38.676-117.894l.7-12.771s23.216,23.333,26.325,36.416-24.027,86.128-30.043,88.232-4.673-16.84-13.832-9.323a238.361,238.361,0,0,1-21.828,15.339" transform="translate(-176.411 689.963)"/>
        <path id="path150" d="M382.9-430.382s29.153,13.479,35.619,15.735,34.2,12.932,42.1,28.421,10.677,39.85,6.918,58.8-21.5,133.832-23.006,142.253,1.5,30.751-1.656,38.194-2.48,25.713-5.865,38.347S400.246,26.7,399.12,32.34s-11.956,4.737-18.949,2.031S361,22.868,362.129,16.327s36.39-139.548,37.592-146.466S413.5-218.99,413.5-218.99l9.527-53.854s-8.209-32.183-10.737-44.805-2.187-25.6-2.266-31.223-57.967-48.632-47.971-67.579S382.9-430.382,382.9-430.382" transform="translate(-160.959 702.829)" fill="#1b2345"/>
        <path id="path168" d="M382.9-430.382s29.153,13.479,35.619,15.735,34.2,12.932,42.1,28.421,10.677,39.85,6.918,58.8-21.5,133.832-23.006,142.253,1.5,30.751-1.656,38.194-2.48,25.713-5.865,38.347S400.246,26.7,399.12,32.34s-11.956,4.737-18.949,2.031S361,22.868,362.129,16.327s36.39-139.548,37.592-146.466S413.5-218.99,413.5-218.99l9.527-53.854s-8.209-32.183-10.737-44.805-2.187-25.6-2.266-31.223-57.967-48.632-47.971-67.579S382.9-430.382,382.9-430.382" transform="translate(-160.959 702.829)"/>
        <path id="path170" d="M329.989-437.175s-36.3,21.8-45.622,23.3-46.617,5.714-53.232,37.292,2.106,65.563,7.82,100.45S253.39-145,255.8-134.779s40.6,157.29,40.6,157.29a61.407,61.407,0,0,0,27.067,0C338.8,19.2,335.8,11.836,335.8,11.836s-12.458-51.279-17.958-71.128-21.14-79.4-21.14-79.4,3.038-15.938,1.971-21.051-23.324-81.8-20.617-106.467,12.932-58.042,13.233-67.066-5.114-23.458-5.114-23.458L337.3-392.822l-7.309-44.353" transform="translate(-228.762 699.651)" fill="#1b2345"/>
        <path id="path188" d="M329.989-437.175s-36.3,21.8-45.622,23.3-46.617,5.714-53.232,37.292,2.106,65.563,7.82,100.45S253.39-145,255.8-134.779s40.6,157.29,40.6,157.29a61.407,61.407,0,0,0,27.067,0C338.8,19.2,335.8,11.836,335.8,11.836s-12.458-51.279-17.958-71.128-21.14-79.4-21.14-79.4,3.038-15.938,1.971-21.051-23.324-81.8-20.617-106.467,12.932-58.042,13.233-67.066-5.114-23.458-5.114-23.458L337.3-392.822l-7.309-44.353" transform="translate(-228.762 699.651)"/>
        <path id="path190" d="M391.81-164.531a27.572,27.572,0,0,1-.422-5.383c-.008-13.552,5.173-41.167,10.364-67.052,2.595-12.952,5.191-25.491,7.14-35.69,1.947-10.217,3.254-18.01,3.262-21.751,0-.293-.008-.563-.026-.815a90.061,90.061,0,0,0-2.592-13.437c-2.038-8.211-4.891-18.2-7.233-27.644s-4.162-18.359-4.156-24.261c0-8.005,1.384-13.374,3.1-17.209a36.562,36.562,0,0,1,5.268-8.117,1.009,1.009,0,0,0-.19-1.414,1.009,1.009,0,0,0-1.414.188,38.412,38.412,0,0,0-5.506,8.52c-1.84,4.114-3.274,9.8-3.272,18.033.01,8.361,3.3,21.547,6.686,34.318,1.695,6.377,3.414,12.634,4.761,18.073a88.113,88.113,0,0,1,2.538,13.094c.014.192.022.418.022.672.008,3.347-1.281,11.217-3.228,21.372-2.915,15.263-7.3,35.839-10.949,55.187s-6.583,37.449-6.589,47.934a29.54,29.54,0,0,0,.464,5.8,1.011,1.011,0,0,0,1.194.781,1.01,1.01,0,0,0,.781-1.194" transform="translate(-146.346 725.136)" fill="#0a0f1a"/>
        <path id="path192" d="M418.365-148.1c-1.731-10.017-6.48-26.323-11.944-43.831a1.01,1.01,0,0,0-1.263-.664,1.01,1.01,0,0,0-.664,1.263c5.455,17.474,10.195,33.781,11.881,43.574a1.009,1.009,0,0,0,1.166.821,1.01,1.01,0,0,0,.823-1.164" transform="translate(-138.609 825.132)" fill="#0a0f1a"/>
        <path id="path194" d="M261.107-195.233c-3.553,11.724-6.6,21.83-8.823,29.367-1.112,3.769-2.02,6.9-2.683,9.264s-1.083,3.964-1.237,4.767a1.012,1.012,0,0,0,.807,1.178,1.01,1.01,0,0,0,1.176-.807c.117-.634.537-2.248,1.2-4.594,1.981-7.065,6.168-21.01,11.494-38.591a1.009,1.009,0,0,0-.674-1.257,1.006,1.006,0,0,0-1.257.672" transform="translate(-218.712 823.435)" fill="#0a0f1a"/>
        <path id="path196" d="M265.514-384.071l.008,0c.3.262,7.43,6.242,7.441,21.46a55.5,55.5,0,0,1-.6,7.975c-1.38,9.543-4.7,19.749-7.695,30.394s-5.655,21.737-5.657,33.1a66.069,66.069,0,0,0,.722,9.884c1.937,12.8,7.2,35.177,11.992,55.443,2.393,10.13,4.664,19.725,6.337,27.305.835,3.789,1.521,7.075,2,9.664a36.982,36.982,0,0,1,.73,5.4l-.01.289a13.642,13.642,0,0,1-.289,1.491c-.521,2.256-1.687,6.5-3.291,12.091a1.008,1.008,0,0,0,.69,1.249,1.011,1.011,0,0,0,1.249-.692c1.071-3.732,1.949-6.87,2.574-9.236.313-1.184.563-2.175.742-2.958a14.881,14.881,0,0,0,.333-1.763l.018-.47a38.316,38.316,0,0,0-.763-5.766c-1.687-9.188-5.923-26.708-10.164-44.74s-8.48-36.555-10.15-47.609a63.987,63.987,0,0,1-.7-9.581c0-11.044,2.6-21.959,5.583-32.555s6.329-20.859,7.749-30.65a57.644,57.644,0,0,0,.623-8.264c.01-16.4-8.048-22.935-8.213-23.046a1.007,1.007,0,0,0-1.416.163,1.01,1.01,0,0,0,.163,1.418" transform="translate(-213.241 725.977)" fill="#0a0f1a"/>
        <path id="path198" d="M369.853-119.382c.121-.712.728-3.129,1.672-6.666,3.319-12.432,10.885-39.261,17.75-63.733,3.434-12.236,6.692-23.885,9.16-32.855,1.235-4.485,2.27-8.3,3.03-11.189s1.245-4.824,1.394-5.671a1.007,1.007,0,0,0-.821-1.166,1.006,1.006,0,0,0-1.166.819c-.131.767-.746,3.22-1.7,6.793-3.343,12.553-10.919,39.436-17.78,63.887-3.432,12.226-6.686,23.847-9.143,32.771-1.229,4.463-2.258,8.25-3.012,11.1s-1.231,4.753-1.372,5.564a1.008,1.008,0,0,0,.821,1.166,1.009,1.009,0,0,0,1.166-.823" transform="translate(-157.389 800.482)" fill="#0a0f1a"/>
        <path id="path200" d="M423.418-217.868c-1.691,6.309-10.882,40.147-19.792,73.107-4.455,16.479-8.839,32.742-12.182,45.237-1.671,6.248-3.081,11.554-4.108,15.477s-1.671,6.436-1.828,7.217a1.009,1.009,0,0,0,.793,1.186,1.007,1.007,0,0,0,1.186-.791c.125-.629.775-3.193,1.8-7.1,7.188-27.426,33.118-122.754,36.079-133.812a1.01,1.01,0,0,0-.714-1.235,1.009,1.009,0,0,0-1.235.714" transform="translate(-148.338 811.803)" fill="#0a0f1a"/>
        <path id="path202" d="M307.132-119.038c0-.008-4.489-20.074-10-39.955s-24.158-83.683-24.158-83.687a1.009,1.009,0,0,0-1.251-.686,1.011,1.011,0,0,0-.686,1.253s.293,1,.813,2.78c3.644,12.484,18.529,63.528,23.337,80.878,2.746,9.908,5.239,19.877,7.047,27.364.9,3.745,1.636,6.868,2.141,9.057s.785,3.434.787,3.436a1.008,1.008,0,0,0,1.2.765,1.006,1.006,0,0,0,.763-1.2" transform="translate(-207.087 799.083)" fill="#0a0f1a"/>
        <path id="path204" d="M245.989-236.756c2.417,10.269,40.6,157.3,40.607,157.312a1.01,1.01,0,0,0,1.231.724,1.009,1.009,0,0,0,.722-1.23c0-.006-.6-2.3-1.646-6.339-7.34-28.28-36.854-142.023-38.948-150.929a1.012,1.012,0,0,0-1.215-.751,1.009,1.009,0,0,0-.751,1.213" transform="translate(-219.936 801.859)" fill="#0a0f1a"/>
        <path id="path206" d="M276.051-134.482c-.375.938,5.413,31.128,5.865,33.533s5.413,12.783,5.413,12.783,10.525,49.473,11.579,53.083S315.3-8.769,317.856-6.212s12.48,7.46,13.832,7.574,4.739-2.593,5.585-3.494,2.592-3.1,2.592-3.1-.28-5.022-3.833-4.852-3.609.961-3.609.961-5.359-5.752-6.823-5.7c-2.312-3.892-7.106-12.688-7.106-12.688s16.917,15.452,17.988,15.621,12.236,2.875,13.759,2.311a5.629,5.629,0,0,0,2.99-3.948c4.624-.787,8.344-3.325,8.344-5.242v-1.919s6.034,5.922,7.838,5.413,4.231-2.819,4.231-4.062S365.411-28.3,362.2-31.006s-9.771-13.14-9.779-13.31-.771-15.234-.9-17.82-1.442-13.869-4.092-17.986-21.317-16.8-29.268-22.893c-6.6-14.494-8.344-33.608-8.683-36.315s-27.761-9.3-33.42,4.848" transform="translate(-204.505 850.479)" fill="#fcd093"/>
        <path id="path208" d="M383.459-133.3s-4.122,24.51-5.443,26.314c-7.489,1.053-25.685,13.986-29.444,20.151S333.536-58.869,331.28-53.154s-1.955,17.894-1.955,17.894,1.2,15.64,6.918,16.241S358.2-15.561,361.2-17.214,378.347-32.4,379.1-32.4a51.83,51.83,0,0,1-7.37,13.985c-2.1,1.8-7.368,5.564-7.368,5.564s-6.329-2.255-7.975,2.405,6.172,7.519,7.826,6.918S378.647-7.89,379.7-10s14.135-21.5,15.486-24.51,13.086-50.977,13.086-54.435c6.014-9.626,6.615-39.4,6.615-39.4S399.4-139.77,383.459-133.3" transform="translate(-177.165 854.564)" fill="#fcd093"/>
        <path id="path210" d="M395.844-431.414a10.476,10.476,0,0,1,.22,2.383c.008,4.326-1.509,11.8-3.9,20.48a407.566,407.566,0,0,1-14.234,41.575c-2.572,6.361-5.052,11.952-7.14,16.015a46,46,0,0,1-2.78,4.834,10.7,10.7,0,0,1-1.039,1.329,1.886,1.886,0,0,1-.525.432,1.686,1.686,0,0,1-.567.109,1.238,1.238,0,0,1-.773-.282,6.175,6.175,0,0,1-1.529-2.223c-.767-1.588-1.463-3.646-2.407-5.389a8.408,8.408,0,0,0-1.735-2.308,4.029,4.029,0,0,0-2.693-1.059,7.241,7.241,0,0,0-4.435,2c-4.539,3.724-9.977,7.548-14.272,10.431-2.149,1.443-4.011,2.651-5.336,3.5s-2.108,1.328-2.11,1.33l-.478.3V-20.492a1.009,1.009,0,0,0,1.009,1.009,1.009,1.009,0,0,0,1.009-1.009V-337.4h-1.009l.531.857a239.231,239.231,0,0,0,21.937-15.416,5.38,5.38,0,0,1,3.155-1.545,1.837,1.837,0,0,1,1.049.321,5.82,5.82,0,0,1,1.725,2.215c.821,1.566,1.511,3.6,2.365,5.324a8.8,8.8,0,0,0,1.533,2.294,3.444,3.444,0,0,0,2.465,1.108,3.721,3.721,0,0,0,1.235-.222,4.3,4.3,0,0,0,1.719-1.4,34.508,34.508,0,0,0,3.488-5.669c4.592-8.8,11-24.854,16.291-40.619,2.643-7.88,5-15.682,6.706-22.463s2.754-12.529,2.758-16.421a12.481,12.481,0,0,0-.274-2.849,1.009,1.009,0,0,0-1.215-.749,1.009,1.009,0,0,0-.746,1.215" transform="translate(-176.753 701.97)" fill="#0a0f1a"/>
        <path id="path212" d="M287.238-431.88a12.486,12.486,0,0,0-.274,2.849c.008,4.737,1.566,12.244,3.969,21.012a410.064,410.064,0,0,0,14.308,41.8c2.588,6.4,5.082,12.028,7.215,16.18a48.463,48.463,0,0,0,2.911,5.052,12.67,12.67,0,0,0,1.245,1.584,3.542,3.542,0,0,0,1.317.942,3.713,3.713,0,0,0,1.233.222,3.264,3.264,0,0,0,1.985-.686,7.947,7.947,0,0,0,2.135-2.964c.837-1.747,1.531-3.781,2.363-5.3a6.375,6.375,0,0,1,1.293-1.757,2,2,0,0,1,1.364-.559,5.38,5.38,0,0,1,3.155,1.545,238.6,238.6,0,0,0,21.936,15.416,1.009,1.009,0,0,0,1.388-.329,1.009,1.009,0,0,0-.329-1.388s-.783-.484-2.108-1.33a224.714,224.714,0,0,1-19.608-13.929,7.246,7.246,0,0,0-4.434-2,3.878,3.878,0,0,0-2.151.648,7.681,7.681,0,0,0-2.413,2.972c-.918,1.767-1.612,3.821-2.383,5.359a6.954,6.954,0,0,1-1.158,1.771,1.421,1.421,0,0,1-1.035.512,1.687,1.687,0,0,1-.567-.109,2.908,2.908,0,0,1-.835-.783,32.979,32.979,0,0,1-3.25-5.312c-4.5-8.617-10.909-24.648-16.168-40.328-2.631-7.842-4.977-15.6-6.662-22.314s-2.7-12.386-2.7-15.928a10.591,10.591,0,0,1,.22-2.383,1.009,1.009,0,0,0-.749-1.215,1.009,1.009,0,0,0-1.215.748" transform="translate(-198.896 701.97)" fill="#0a0f1a"/>
        <path id="path214" d="M259.517-319.16l21.218,36.142a1.006,1.006,0,0,0,1.38.359,1.008,1.008,0,0,0,.359-1.38l-21.218-36.142a1.008,1.008,0,0,0-1.38-.359,1.008,1.008,0,0,0-.359,1.38" transform="translate(-213.051 759.43)" fill="#0a0f1a"/>
        <path id="path216" d="M408.409-312.844l-20.934,28.465a1.009,1.009,0,0,0,.214,1.41,1.009,1.009,0,0,0,1.41-.216l20.934-28.463a1.008,1.008,0,0,0-.214-1.41,1.008,1.008,0,0,0-1.41.214" transform="translate(-147.42 763.24)" fill="#0a0f1a"/>
        <path id="path218" d="M276.338-241.047,265.066-247.6a1.007,1.007,0,0,0-1.378.365,1.006,1.006,0,0,0,.365,1.378l11.272,6.553a1.009,1.009,0,0,0,1.378-.367,1.007,1.007,0,0,0-.365-1.378" transform="translate(-210.91 796.861)" fill="#0a0f1a"/>
        <path id="path220" d="M391.23-235.54l14.659-9.7a1.009,1.009,0,0,0,.284-1.4,1.006,1.006,0,0,0-1.4-.285l-14.659,9.7a1.007,1.007,0,0,0-.284,1.4,1.008,1.008,0,0,0,1.4.284" transform="translate(-146.196 797.192)" fill="#0a0f1a"/>
        <path id="path222" d="M270.19-364.242l.827-22.869a1.01,1.01,0,0,0-.972-1.045,1.01,1.01,0,0,0-1.045.973l-.825,22.869a1.006,1.006,0,0,0,.97,1.043,1.008,1.008,0,0,0,1.045-.97" transform="translate(-208.538 724.805)" fill="#0a0f1a"/>
        <path id="path224" d="M396.162-367.337l.079-20.6a1.009,1.009,0,0,0-1-1.013,1.009,1.009,0,0,0-1.013,1l-.079,20.6a1.009,1.009,0,0,0,1,1.013,1.009,1.009,0,0,0,1.013-1" transform="translate(-143.897 724.397)" fill="#0a0f1a"/>
        <path id="path226" d="M343.626-348.135a3.084,3.084,0,0,0-3.083-3.083,3.083,3.083,0,0,0-3.083,3.083,3.084,3.084,0,0,0,3.083,3.085,3.086,3.086,0,0,0,3.083-3.085" transform="translate(-172.984 743.76)" fill="#0a0f1a"/>
        <path id="path228" d="M343.626-312.607a3.084,3.084,0,0,0-3.083-3.083,3.083,3.083,0,0,0-3.083,3.083,3.083,3.083,0,0,0,3.083,3.083,3.084,3.084,0,0,0,3.083-3.083" transform="translate(-172.984 761.991)" fill="#0a0f1a"/>
        <path id="path230" d="M343.626-277.079a3.084,3.084,0,0,0-3.083-3.083,3.082,3.082,0,0,0-3.083,3.083,3.084,3.084,0,0,0,3.083,3.085,3.086,3.086,0,0,0,3.083-3.085" transform="translate(-172.984 780.221)" fill="#0a0f1a"/>
        <path id="path232" d="M343.626-241.551a3.084,3.084,0,0,0-3.083-3.083,3.083,3.083,0,0,0-3.083,3.083,3.083,3.083,0,0,0,3.083,3.083,3.084,3.084,0,0,0,3.083-3.083" transform="translate(-172.984 798.452)" fill="#0a0f1a"/>
        <path id="path234" d="M343.626-206.023a3.084,3.084,0,0,0-3.083-3.083,3.083,3.083,0,0,0-3.083,3.083,3.084,3.084,0,0,0,3.083,3.085,3.086,3.086,0,0,0,3.083-3.085" transform="translate(-172.984 816.683)" fill="#0a0f1a"/>
        <path id="path236" d="M303.812-446.064l7.719,15.864a.911.911,0,0,0,1.215.42.911.911,0,0,0,.42-1.214l-7.721-15.864a.905.905,0,0,0-1.213-.42.908.908,0,0,0-.42,1.215" transform="translate(-190.298 694.42)" fill="#bf6155"/>
        <path id="path238" d="M357.983-446.679l-8.722,19.85a.908.908,0,0,0,.464,1.2.907.907,0,0,0,1.2-.466l8.724-19.85a.909.909,0,0,0-.466-1.2.908.908,0,0,0-1.2.466" transform="translate(-166.968 694.496)" fill="#bf6155"/>
        <path id="path240" d="M307.111-73.1s5.155,5.213,10.671,10.549c2.76,2.669,5.609,5.37,7.957,7.475,1.174,1.051,2.223,1.955,3.083,2.636.432.341.815.628,1.154.854a4.215,4.215,0,0,0,.944.511,48.1,48.1,0,0,1,4.439,1.866c.68.321,1.271.612,1.693.821s.666.337.668.337a.908.908,0,0,0,1.223-.392.91.91,0,0,0-.389-1.223,66.372,66.372,0,0,0-7.043-3.126,3.156,3.156,0,0,1-.523-.3,58.512,58.512,0,0,1-5.391-4.564c-3.5-3.212-7.808-7.395-11.229-10.772-1.711-1.689-3.2-3.176-4.267-4.241s-1.7-1.7-1.7-1.707a.908.908,0,0,0-1.283-.006.907.907,0,0,0-.006,1.284" transform="translate(-188.692 885.678)" fill="#bf6155"/>
        <path id="path242" d="M299.665-69.925s5.155,5.213,10.671,10.549c2.76,2.669,5.609,5.371,7.957,7.473,1.174,1.053,2.223,1.954,3.083,2.637.432.343.815.627,1.154.855a4.325,4.325,0,0,0,.944.511,28.209,28.209,0,0,0,3.6.815c4.519.8,11.058,1.578,11.066,1.578a.908.908,0,0,0,1.009-.8.909.909,0,0,0-.795-1.009c-.006,0-2.9-.341-6.147-.8-1.626-.232-3.339-.494-4.814-.757a27.134,27.134,0,0,1-3.333-.746,2.85,2.85,0,0,1-.523-.3,58.661,58.661,0,0,1-5.391-4.564c-3.5-3.211-7.808-7.394-11.23-10.771-1.711-1.689-3.2-3.176-4.267-4.241s-1.7-1.7-1.7-1.706a.908.908,0,0,0-1.285-.006.906.906,0,0,0-.006,1.283" transform="translate(-192.514 887.31)" fill="#bf6155"/>
        <path id="path244" d="M314.484-78.725c.1.1.514.587,1.083,1.277,2.022,2.447,6.287,7.741,10.191,12.507,1.953,2.382,3.817,4.632,5.272,6.335.728.851,1.352,1.566,1.842,2.1.246.266.456.486.637.662a2.754,2.754,0,0,0,.547.442c.668.371,3.133,1.763,5.425,3.06s4.412,2.5,4.416,2.5a.911.911,0,0,0,1.239-.343.908.908,0,0,0-.343-1.237s-8.492-4.812-9.856-5.569l-.127.228.159-.21-.032-.018-.127.228.159-.21a4.149,4.149,0,0,1-.4-.375c-.777-.8-2.292-2.564-4.11-4.745-2.732-3.274-6.174-7.514-9.041-11.042-1.432-1.765-2.722-3.353-3.708-4.558-.494-.6-.91-1.108-1.235-1.495s-.543-.644-.694-.8a.91.91,0,0,0-1.285-.018.908.908,0,0,0-.018,1.283" transform="translate(-184.906 882.797)" fill="#bf6155"/>
        <path id="path246" d="M317.53-95.048l.573-.288-.585.264.012.024.573-.288-.585.264c.006.013.135.329.317.783.646,1.619,2.122,5.356,3.561,8.917.718,1.779,1.426,3.517,2.02,4.926s1.059,2.478,1.344,3.011c.619,1.15,2.225,3.512,3.71,5.653s2.816,3.995,2.818,4l.736-.528-.763.49s2.12,3.294,4.384,6.678c1.134,1.691,2.3,3.406,3.266,4.75.484.671.914,1.251,1.273,1.7.18.224.339.413.488.573a2.347,2.347,0,0,0,.5.427c.339.2,1.039.563,1.967,1.04,1.382.71,3.226,1.644,4.79,2.463.783.408,1.493.789,2.036,1.091.272.154.5.287.668.39l.2.129.055.039.01.008.059-.069-.063.067,0,0,.059-.069-.063.067.232-.256-.3.177.071.079.23-.256-.3.177.056.159a7.233,7.233,0,0,1,.161,1.743,17.44,17.44,0,0,1-.252,2.9,8.542,8.542,0,0,1-.718,2.389.907.907,0,0,0,.375,1.228.905.905,0,0,0,1.227-.375,10.189,10.189,0,0,0,.9-2.929,19.094,19.094,0,0,0,.28-3.214,10.794,10.794,0,0,0-.125-1.768,4.023,4.023,0,0,0-.186-.72,1.708,1.708,0,0,0-.438-.686,4.789,4.789,0,0,0-.738-.5c-1.071-.634-3.133-1.7-5.076-2.7-.97-.5-1.907-.972-2.659-1.36s-1.336-.694-1.537-.815l-.169.286.206-.262-.034-.024-.172.286.206-.262a6.193,6.193,0,0,1-.642-.738c-1.194-1.516-3.387-4.746-5.26-7.568s-3.44-5.257-3.442-5.264l-.012-.018-.014-.018s-1.332-1.856-2.8-3.975-3.093-4.521-3.6-5.476c-.24-.444-.835-1.805-1.545-3.515-1.073-2.578-2.451-6.018-3.577-8.842-.563-1.411-1.061-2.669-1.426-3.587-.184-.46-.333-.835-.442-1.1l-.129-.323-.089-.2a.906.906,0,0,0-1.219-.4.906.906,0,0,0-.4,1.218" transform="translate(-183.261 874.536)" fill="#bf6155"/>
        <path id="path248" d="M369.394-75.036s-.272.418-.716,1.072c-.664.98-1.709,2.491-2.76,3.894a21.507,21.507,0,0,1-2.728,3.174c-.555.449-1.618,1.464-3,2.8-2.056,1.992-4.755,4.655-7.073,6.88-1.16,1.111-2.223,2.112-3.057,2.861-.418.373-.777.684-1.053.905l-.341.261-.1.069-.026.014,0,.008,0-.008h0l0,.008,0-.008a3.059,3.059,0,0,1-.6.147,31.821,31.821,0,0,1-4.937.321,36.4,36.4,0,0,1-4.852-.295,8.445,8.445,0,0,1-3.2-.92.907.907,0,0,0-1.263.232.907.907,0,0,0,.232,1.263,9.82,9.82,0,0,0,3.979,1.223,38.023,38.023,0,0,0,5.1.312c1.408,0,2.744-.06,3.827-.163.545-.052,1.023-.113,1.428-.185a4.548,4.548,0,0,0,1.037-.284,3.168,3.168,0,0,0,.551-.348c.692-.516,1.783-1.509,3.125-2.77,2-1.886,4.513-4.35,6.694-6.48,1.091-1.065,2.1-2.046,2.917-2.827s1.455-1.367,1.745-1.6a14.957,14.957,0,0,0,1.959-2.106c2.118-2.627,4.612-6.436,4.622-6.448a.908.908,0,0,0-.262-1.257.91.91,0,0,0-1.257.26" transform="translate(-175 885.271)" fill="#bf6155"/>
        <path id="path250" d="M359.018-83.063l.555.079-.525-.206-.03.127.555.079-.525-.206c-.014.043-.149.317-.341.666-.682,1.251-2.179,3.762-3.71,6.09-.765,1.164-1.541,2.286-2.225,3.18a9.964,9.964,0,0,1-1.578,1.759c-.611.442-1.691,1.393-3.051,2.631-4.057,3.7-10.356,9.785-10.36,9.787a.906.906,0,0,0-.022,1.283.906.906,0,0,0,1.283.022l1.781-1.712c1.622-1.556,4.108-3.926,6.379-6.045,1.136-1.059,2.219-2.054,3.111-2.853s1.608-1.4,1.933-1.636a13.148,13.148,0,0,0,2.362-2.663c1.32-1.8,2.821-4.138,4.011-6.1.6-.979,1.11-1.858,1.483-2.526.188-.335.339-.616.452-.835l.143-.3a1.432,1.432,0,0,0,.115-.373.908.908,0,0,0-.771-1.027.908.908,0,0,0-1.027.771" transform="translate(-172.96 880.961)" fill="#bf6155"/>
        <path id="path252" d="M350.843-90.241s-2.2,3.347-4.513,6.892c-1.156,1.772-2.342,3.594-3.295,5.072s-1.667,2.6-1.923,3.044c-.167.305-.9,1.362-1.842,2.667-1.422,1.976-3.371,4.614-4.965,6.757s-2.826,3.788-2.829,3.793a.907.907,0,0,0,.182,1.27.909.909,0,0,0,1.271-.181s2.2-2.936,4.515-6.068c1.158-1.566,2.342-3.182,3.3-4.509s1.666-2.338,1.947-2.827c.2-.344.924-1.493,1.87-2.962,1.426-2.211,3.375-5.2,4.969-7.636s2.827-4.312,2.831-4.315a.908.908,0,0,0-.26-1.257.906.906,0,0,0-1.257.26" transform="translate(-176.147 877.468)" fill="#bf6155"/>
        <path id="path254" d="M289.965-490.38l-1.085-.159-6.617,45.261a1.1,1.1,0,0,0,.256.878,1.1,1.1,0,0,0,.831.381h16.239a1.106,1.106,0,0,0,.855-.408,1.109,1.109,0,0,0,.22-.92L291.04-490.61a1.1,1.1,0,0,0-1.11-.87,1.1,1.1,0,0,0-1.051.94l1.085.159-1.073.228,9.341,43.936H284.618l6.434-44.006-1.087-.157-1.073.228,1.073-.228" transform="translate(-201.314 671.785)" fill="#f68d58"/>
        <path id="path256" d="M377.845-489.91l-.989-.143-6.615,45.261a1,1,0,0,0,.232.8,1,1,0,0,0,.757.345h16.239a1,1,0,0,0,.777-.371,1,1,0,0,0,.2-.835l-9.626-45.263a1,1,0,0,0-1.009-.789,1,1,0,0,0-.956.853l.989.143-.976.208,9.367,44.057H372.384l6.45-44.119-.989-.145-.976.208.976-.208" transform="translate(-156.168 672.079)" fill="#f68d58"/>
        <path id="path258" d="M354.423-591.516c-24.89,0-81.9,20.4-68.285,106.916,4.4,27.971,3.983,46.24,18.448,64.964s34.9,36.539,49.837,36.539,65.253-26.165,71.541-102.405-25.9-105.113-71.541-106.015" transform="translate(-200.383 620.453)" fill="#fcd093"/>
        <path id="path260" d="M284.867-520.118c2.2,13.951,3.192,25.513,5.459,36s5.839,19.891,13.162,29.365a145,145,0,0,0,24.9,25.447c8.867,6.845,17.813,11.415,25.633,11.433,3.974-.01,9.993-1.695,17.006-5.381,21-11.054,50.674-40.36,55.409-97.827a.875.875,0,0,0-.8-.944.875.875,0,0,0-.944.8c-3.133,37.938-17.193,63.33-32.288,79.264a86.924,86.924,0,0,1-22.193,17.159c-6.819,3.6-12.694,5.189-16.189,5.179-7.12.018-15.86-4.322-24.561-11.066a143.333,143.333,0,0,1-24.583-25.134c-7.142-9.248-10.594-18.335-12.835-28.663s-3.236-21.882-5.441-35.9a.874.874,0,0,0-1-.728.876.876,0,0,0-.728,1" transform="translate(-199.977 656.108)" fill="#bf6155"/>
        <path id="path262" d="M305.731-508.167a9,9,0,0,1,2.649-6.394,9,9,0,0,1,6.393-2.649,9.008,9.008,0,0,1,6.393,2.649,9.012,9.012,0,0,1,2.649,6.394,1.221,1.221,0,0,0,1.221,1.221,1.221,1.221,0,0,0,1.221-1.221,11.485,11.485,0,0,0-11.484-11.484,11.484,11.484,0,0,0-11.484,11.484,1.221,1.221,0,0,0,1.221,1.221,1.221,1.221,0,0,0,1.221-1.221" transform="translate(-190.518 657.33)" fill="#2e1211"/>
        <path id="path264" d="M347.559-507.74a9.008,9.008,0,0,1,2.649-6.393,9.013,9.013,0,0,1,6.393-2.649,9.013,9.013,0,0,1,6.393,2.649,9.016,9.016,0,0,1,2.649,6.393,1.22,1.22,0,0,0,1.221,1.221,1.22,1.22,0,0,0,1.221-1.221A11.485,11.485,0,0,0,356.6-519.224a11.484,11.484,0,0,0-11.484,11.484,1.22,1.22,0,0,0,1.221,1.221,1.22,1.22,0,0,0,1.221-1.221" transform="translate(-169.055 657.549)" fill="#2e1211"/>
        <path id="path266" d="M334.634-514.777s.3,1.342.761,3.47c.684,3.19,1.713,8.143,2.566,12.942a84.709,84.709,0,0,1,1.525,11.92,5.438,5.438,0,0,1-.111,1.305v0a3.938,3.938,0,0,1-1.566,1.933,15.394,15.394,0,0,1-4.507,2.048c-.734.22-1.388.375-1.852.476-.232.05-.418.089-.543.111l-.182.034a1.208,1.208,0,0,0-.995,1.388,1.207,1.207,0,0,0,1.39.995,26.573,26.573,0,0,0,4.584-1.265,15.088,15.088,0,0,0,3.533-1.838,6.273,6.273,0,0,0,2.453-3.194v0a7.25,7.25,0,0,0,.212-1.989,56.932,56.932,0,0,0-.777-7.61c-1.384-9.1-4.132-21.24-4.134-21.255a1.208,1.208,0,0,0-1.444-.912,1.208,1.208,0,0,0-.912,1.445" transform="translate(-176.958 659.074)" fill="#bf6155"/>
        <path id="path268" d="M321.413-481.616c2.2,1.309,4.463,2.683,6.617,3.8a34.711,34.711,0,0,0,6.519,2.607,18.774,18.774,0,0,0,6.616.635c2.3-.052,4.584-.829,7.2-1.469l.256-.061a1.835,1.835,0,0,1,2.217,1.348,1.84,1.84,0,0,1-.47,1.713,17.283,17.283,0,0,1-7.927,4.9,18.035,18.035,0,0,1-9.737.174,21.737,21.737,0,0,1-8.419-4.243,20.547,20.547,0,0,1-5.748-7.079,1.891,1.891,0,0,1,.886-2.524,1.887,1.887,0,0,1,1.773.073l.218.127" transform="translate(-182.791 676.649)" fill="#fffffd"/>
        <path id="path270" d="M299.051-523.083a20.237,20.237,0,0,1,7.838-5.7,21.335,21.335,0,0,1,4.852-1.354,19.5,19.5,0,0,1,5.163.032,24.906,24.906,0,0,1,9.133,3.478,29.524,29.524,0,0,1,7.2,6.03,1.386,1.386,0,0,1-.151,1.957,1.383,1.383,0,0,1-1.529.182l-.089-.042c-2.552-1.3-5.147-2.629-7.711-3.7a31.424,31.424,0,0,0-7.652-2.29,19.506,19.506,0,0,0-7.548.547,40.912,40.912,0,0,0-7.64,2.962l-.145.073a1.419,1.419,0,0,1-1.9-.644,1.427,1.427,0,0,1,.182-1.535" transform="translate(-192.861 651.869)" fill="#864443"/>
        <path id="path272" d="M343.8-518.306a1.388,1.388,0,0,1-1.239-.758,1.393,1.393,0,0,1,.184-1.531,29.521,29.521,0,0,1,7.2-6.03,24.891,24.891,0,0,1,9.133-3.478,15.418,15.418,0,0,1,2.476-.188,26.422,26.422,0,0,1,2.687.155,21.343,21.343,0,0,1,4.852,1.354,20.221,20.221,0,0,1,7.838,5.7,1.416,1.416,0,0,1-.184,2,1.415,1.415,0,0,1-.908.327,1.434,1.434,0,0,1-.625-.143l-.143-.075a40.981,40.981,0,0,0-7.642-2.962,21.257,21.257,0,0,0-5.246-.7,16.556,16.556,0,0,0-2.3.157,31.424,31.424,0,0,0-7.653,2.29c-2.564,1.067-5.159,2.4-7.711,3.7l-.087.042a1.375,1.375,0,0,1-.627.151" transform="translate(-170.444 651.869)" fill="#a1534e"/>
        <path id="path274" d="M361.9-552.758c-12.944,69.516-73.095,76.111-73.095,76.111S247.828-561.91,332.337-599.2,361.9-552.758,361.9-552.758" transform="translate(-203.048 611.599)" fill="#864443"/>
        <path id="path276" d="M328.655-529.71s23.97-27.1,41.67-14.214c30.977,22.554,38.42,145.411,38.121,166.163-.2,13.84-61.335,100.142-49.268,146.817,11.429,44.212,59.246,30.227,68.42,3.46,0,0-43.909,17.143-31.278-28.269,9.708-34.911,78.8-40.072,54.887-64.212-26.569-26.819,11.193-37.007-2.463-143.885-9.418-73.7-44.874-153.156-96.5-140.905-13.4,3.18-11.905,31.217-23.585,75.046" transform="translate(-177.502 613.013)" fill="#864443"/>
        <path id="path278" d="M304.995-575.7c-3.849,3.349-9.551,10.533-14.631,19.142-5.064,8.607-9.476,18.591-10.529,27.545a75.732,75.732,0,0,0-.579,8.8,41.49,41.49,0,0,0,1.126,10.009c1.588,6.341,5.223,11.379,7.277,17.054a1.006,1.006,0,0,0,.523.569,1.011,1.011,0,0,0,.771.034,1.013,1.013,0,0,0,.569-.523,1,1,0,0,0,.032-.771l-.484.176.512-.071-.028-.1-.484.176.512-.071-.139.02h.141l0-.02-.139.02h.141a5.068,5.068,0,0,1,.286-1.1c.172-.512.361-.981.464-1.382q.427-1.752.823-3.51h0c.442-1.935.944-3.862,1.307-5.879a81.444,81.444,0,0,1,13.784-32.758c.508-.712,1.029-1.418,1.56-2.112a1.011,1.011,0,0,0-.19-1.414,1.009,1.009,0,0,0-1.414.188q-.817,1.071-1.6,2.167a83.424,83.424,0,0,0-14.127,33.576c-.345,1.915-.837,3.811-1.289,5.784v0q-.4,1.746-.817,3.482c-.028.131-.228.672-.414,1.208a6.056,6.056,0,0,0-.393,1.749,1.677,1.677,0,0,0,.093.567,1.011,1.011,0,0,0,1.293.6,1.01,1.01,0,0,0,.6-1.293c-2.209-6.012-5.776-10.987-7.215-16.85a39.381,39.381,0,0,1-1.067-9.523,73.939,73.939,0,0,1,.565-8.571c.985-8.482,5.28-18.3,10.265-26.756,4.969-8.447,10.659-15.567,14.213-18.64a1.01,1.01,0,0,0,.1-1.424,1.011,1.011,0,0,0-1.424-.1" transform="translate(-202.851 628.442)" fill="#5e3231"/>
        <path id="path280" d="M331.644-555.452c1.664-3.8,4.281-7.184,6.954-10.564a39.048,39.048,0,0,1,6.757-7,13.636,13.636,0,0,1,8.27-3.105,12.369,12.369,0,0,1,3.363.48c3.682,1.027,6.831,3.694,9.563,6.686,5.1,5.574,9,12.176,12.791,18.819a66.235,66.235,0,0,1,3.456,7.878c4,10.4,9.022,26.44,10.324,31.954a1.011,1.011,0,0,0,1.215.75,1.008,1.008,0,0,0,.748-1.215c-.9-3.811-3.424-12.166-6.208-20.452-1.392-4.14-2.847-8.256-4.2-11.762a67.352,67.352,0,0,0-3.587-8.155c-3.805-6.658-7.767-13.4-13.053-19.181-2.843-3.1-6.24-6.062-10.507-7.267a14.437,14.437,0,0,0-3.908-.555,15.638,15.638,0,0,0-9.486,3.513,41,41,0,0,0-7.124,7.356c-2.675,3.389-5.415,6.9-7.219,11a1.009,1.009,0,0,0,.519,1.329,1.009,1.009,0,0,0,1.33-.518" transform="translate(-176.961 627.319)" fill="#5e3231"/>
        <path id="path282" d="M316.915-598.522a20.728,20.728,0,0,1,5.4-.706,22.068,22.068,0,0,1,15.892,6.726,1.007,1.007,0,0,0,1.17.22,1.01,1.01,0,0,0,.565-1.047l-.012-.168a4.816,4.816,0,0,1,.972-2.2h0a23.809,23.809,0,0,1,8.476-8.1,1.008,1.008,0,0,0,.383-1.374,1.007,1.007,0,0,0-1.372-.385,25.786,25.786,0,0,0-9.2,8.788h0a6.4,6.4,0,0,0-1.277,3.262l.03.438,1-.133.734-.692a24.071,24.071,0,0,0-17.361-7.362,22.668,22.668,0,0,0-5.925.777,1.008,1.008,0,0,0-.71,1.237,1.008,1.008,0,0,0,1.237.71" transform="translate(-184.18 613.186)" fill="#5e3231"/>
        <path id="path284" d="M377.959-533.329c6.811,25.959,14.318,92.653,14.353,114.583v.081a29.967,29.967,0,0,1-2.75,12.862c-3.026,7.086-9.008,17.958-15.053,29.119s-12.162,22.635-15.5,31.074a1.008,1.008,0,0,0,.567,1.309,1.008,1.008,0,0,0,1.309-.567c3.262-8.252,9.357-19.7,15.4-30.856s12.03-22.027,15.133-29.286a32.03,32.03,0,0,0,2.913-13.655v-.085c-.054-22.261-7.531-88.757-14.417-115.089a1.01,1.01,0,0,0-1.233-.72,1.008,1.008,0,0,0-.72,1.231" transform="translate(-161.965 649.662)" fill="#5e3231"/>
        <path id="path286" d="M381.347-563.343c15.545,31.955,22.421,59.063,22.433,105.028q0,6.546-.186,13.622a1.006,1.006,0,0,0,.981,1.035,1.009,1.009,0,0,0,1.035-.982q.185-7.109.188-13.675c.01-46.145-6.977-73.764-22.637-105.912a1.009,1.009,0,0,0-1.35-.464,1.007,1.007,0,0,0-.464,1.348" transform="translate(-150.516 634.165)" fill="#5e3231"/>
        <path id="path288" d="M273.3-468.081a239.88,239.88,0,0,0,10.33,49.369,1.01,1.01,0,0,0,1.269.652,1.01,1.01,0,0,0,.652-1.271,237.767,237.767,0,0,1-10.243-48.953,1.008,1.008,0,0,0-1.106-.9,1.008,1.008,0,0,0-.9,1.106" transform="translate(-205.909 683.222)" fill="#5e3231"/>
        <path id="path290" d="M281.236-447.589a61.515,61.515,0,0,0,3.341,12.125,1.008,1.008,0,0,0,1.305.575,1.009,1.009,0,0,0,.575-1.305,59.46,59.46,0,0,1-3.232-11.73,1.009,1.009,0,0,0-1.162-.827,1.006,1.006,0,0,0-.827,1.162" transform="translate(-201.842 693.704)" fill="#5e3231"/>
        <path id="path292" d="M285.937-492.978a99.167,99.167,0,0,0,34.419-13.955,76.212,76.212,0,0,0,23.7-23.861c6.476-10.545,10.786-23.924,10.784-40.75q0-1.223-.032-2.473a1.008,1.008,0,0,0-1.033-.985,1.008,1.008,0,0,0-.983,1.033q.03,1.226.03,2.425c0,16.481-4.2,29.454-10.485,39.695-9.424,15.357-23.6,24.592-35.448,29.976a101.835,101.835,0,0,1-15.1,5.475c-1.923.527-3.474.886-4.541,1.112-.533.111-.944.192-1.223.242s-.412.073-.412.073a1.011,1.011,0,0,0-.835,1.158,1.01,1.01,0,0,0,1.156.835" transform="translate(-200.023 628.926)" fill="#5e3231"/>
      </g>
    </g>
  </g>
</svg>
