<svg xmlns="http://www.w3.org/2000/svg" width="777" height="959.885" viewBox="0 0 777 959.885">
  <defs>
    <style>
      .cls-1 {
        fill: #ffdab9;
      }

      .cls-2 {
        fill: #a13b5d;
      }

      .cls-3 {
        fill: #ab8aa6;
      }

      .cls-4 {
        fill: #f9aa24;
      }

      .cls-12, .cls-13, .cls-16, .cls-5 {
        fill: none;
        stroke-miterlimit: 10;
        stroke-width: 1.333px;
      }

      .cls-5 {
        stroke: #81507e;
      }

      .cls-6 {
        fill: #fcd093;
      }

      .cls-7 {
        fill: #832f4c;
      }

      .cls-8 {
        fill: #d77a19;
      }

      .cls-9 {
        fill: #622318;
      }

      .cls-10 {
        fill: #fabd73;
      }

      .cls-11 {
        fill: #8a91d1;
      }

      .cls-12 {
        stroke: #f79313;
      }

      .cls-12, .cls-13, .cls-16 {
        stroke-linecap: round;
      }

      .cls-13 {
        stroke: #d77a19;
      }

      .cls-14 {
        fill: #fff;
      }

      .cls-15 {
        fill: #81507e;
      }

      .cls-16 {
        stroke: #b34a72;
      }
    </style>
  </defs>
  <g id="GirlwithCircle" transform="translate(667 767.983)">
    <circle id="Ellipse_1" data-name="Ellipse 1" class="cls-1" cx="388.5" cy="388.5" r="388.5" transform="translate(-667 -676.849)"/>
    <g id="g12" transform="translate(-579.425 -767.983)">
      <path id="path194" class="cls-2" d="M463.13-307.246s-41.929-8.617-53.991-72.372,21.878-90.387,29.345-133.464,29.293-41.355,29.293-41.355S496.5-637.722,594.714-613.6s108.5,96.13,107.929,138.635,6.893,109.7,35.039,135.552,17.805,72.691,0,103.835c0,0,14.358,32.291-21.826,70.775S480.361-154.462,463.13-307.246" transform="translate(-277.607 617.983)"/>
      <path id="path196" class="cls-3" d="M497.419-414.49s-77.349,9.955-84.242,26.039S338.125-138.79,332-70.632s3.064,101.09,82.709,101.856c0,0-82.709,123.811-91.133,195.161h486.3S779.245,105.51,745.549,21.268c0,0,51.31,2.3,72.754-32.165s-36.76-282.591-57.437-327.775-134.788-81.18-263.447-75.818" transform="translate(-323.575 730.396)"/>
      <path id="path198" class="cls-4" d="M475.593-414.141s-14.741,42.886,7.659,126.169,37.228,130.959,38.142,189.544S509.1-1.358,509.1-1.358h60.31s-10.914-210.245,2.3-264.788S578.8-377.6,562.615-402.57c0,0-65.96-13.1-87.022-11.571" transform="translate(-242.015 730.814)"/>
      <path id="path200" class="cls-5" d="M475.593-414.141s-14.741,42.886,7.659,126.169,37.228,130.959,38.142,189.544S509.1-1.358,509.1-1.358h60.31s-10.914-210.245,2.3-264.788S578.8-377.6,562.615-402.57c0,0-65.96-13.1-87.022-11.571Z" transform="translate(-242.015 730.814)"/>
      <path id="path202" class="cls-6" d="M634.4-525.429s-4.212,59.734-9.191,88.454-36.76,57.437-51.31,65.477,6.51,43.27,5.362,63.182-7.659,81.178-25.274,81.561-62.8-65.48-62.415-102.238c0,0,8.043-43.653,5.362-63.182,0,0-19.529-20.3-26.805-48.632,0,0-23.741,1.628-27.57-29.867-3.479-28.616,9.574-40.972,14.55-40.589s6.893,11.1,10.722,22.593,8.043-12.636,8.807-31.017l.767-18.381s28.429,6.7,26.469-27.489c-.858-14.915,49.349,43.651,113.678,33.234a16.584,16.584,0,0,1,16.848,6.893" transform="translate(-257.996 645.665)"/>
      <path id="path204" class="cls-2" d="M518.43-536.356a2.3,2.3,0,0,1-2.149-1.479c-.1-.251-2.782-6.632-12.839-7.833-12.081-1.446-16.821,5-17.018,5.277a2.306,2.306,0,0,1-3.193.559,2.285,2.285,0,0,1-.586-3.172c.253-.371,6.369-9.01,21.344-7.226,12.928,1.544,16.444,10.382,16.587,10.757a2.3,2.3,0,0,1-1.328,2.965,2.27,2.27,0,0,1-.818.153" transform="translate(-235.694 655.374)"/>
      <path id="path206" class="cls-7" d="M502.052-515.618c0,5.739-2.451,10.392-5.474,10.392s-5.474-4.653-5.474-10.392,2.451-10.394,5.474-10.394,5.474,4.653,5.474,10.394" transform="translate(-230.787 668.922)"/>
      <path id="path208" class="cls-7" d="M547.042-509.705c0,5.741-2.451,10.394-5.474,10.394s-5.474-4.653-5.474-10.394,2.451-10.392,5.474-10.392,5.474,4.653,5.474,10.392" transform="translate(-205.869 672.198)"/>
      <path id="path210" class="cls-8" d="M520.592-471.249a1.588,1.588,0,0,0,.278-.025c.412-.073,10.106-1.873,13.243-8.592,2.981-6.387-7.519-30.34-9.655-35.076a1.581,1.581,0,0,0-2.089-.789,1.578,1.578,0,0,0-.789,2.088c4.713,10.456,11.507,28.51,9.671,32.44-2.451,5.252-10.852,6.8-10.935,6.82a1.577,1.577,0,0,0-1.278,1.832,1.579,1.579,0,0,0,1.554,1.3" transform="translate(-215.33 674.54)"/>
      <path id="path212" class="cls-8" d="M521.806-465.655a24.175,24.175,0,0,0,20.428-4.326,1.8,1.8,0,0,0,.189-2.542,1.8,1.8,0,0,0-2.54-.193h0c-.338.286-8.428,6.992-20.327,2.637-12.321-4.51-16.129-8.954-16.166-9a1.808,1.808,0,0,0-2.532-.245,1.8,1.8,0,0,0-.267,2.519c.17.211,4.295,5.2,17.724,10.113a28.85,28.85,0,0,0,3.491,1.036" transform="translate(-225.753 694.556)"/>
      <path id="path214" class="cls-9" d="M559.843-534.7c-17.362,0-31.487,15.64-31.487,34.862s14.126,34.862,31.487,34.862,31.485-15.64,31.485-34.862S577.205-534.7,559.843-534.7Zm0,71.8c-18.505,0-33.559-16.568-33.559-36.934s15.054-36.934,33.559-36.934S593.4-520.205,593.4-499.839s-15.054,36.934-33.557,36.934" transform="translate(-211.303 662.962)"/>
      <path id="path216" class="cls-9" d="M506.589-539.878c-17.362,0-31.487,15.64-31.487,34.862s14.126,34.865,31.487,34.865,31.487-15.64,31.487-34.865S523.951-539.878,506.589-539.878Zm0,71.8c-18.505,0-33.559-16.568-33.559-36.936s15.054-36.934,33.559-36.934,33.559,16.568,33.559,36.934-15.056,36.936-33.559,36.936" transform="translate(-240.798 660.095)"/>
      <path id="path218" class="cls-10" d="M500.7-191.936,716.091-152.3s13.784,41.929,5.169,66.627-237.218-69.5-237.218-69.5-49.4-10.914-62.606-19.529-41.355-1.15-45.375-8.617,16.191-12.348,29.778-11.2,1.237-7.753-19.154-8.615-32.165-4.883-30.153-10.626,12.636-6.319,12.636-6.319-17.231-1.148-16.945-5.743,11.776-8.041,22.688-10.052,24.7,0,24.7,0-7.467-7.467-24.41-7.179-15.51-13.786,10.05-13.786,38.772,6.893,45.663,9.191S500.7-191.936,500.7-191.936" transform="translate(-307.71 818.005)"/>
      <path id="path220" class="cls-9" d="M534.467-514.955a1.04,1.04,0,0,1-.876-.481,9.2,9.2,0,0,0-6.027-4.446c-5.323-1.057-11.01,2.917-11.066,2.958a1.034,1.034,0,0,1-1.442-.244,1.035,1.035,0,0,1,.242-1.444c.261-.184,6.456-4.525,12.657-3.3a11.187,11.187,0,0,1,7.388,5.372,1.036,1.036,0,0,1-.323,1.429,1.014,1.014,0,0,1-.553.16" transform="translate(-217.627 671.071)"/>
      <path id="path222" class="cls-2" d="M567.318-532.074a2.216,2.216,0,0,1-2.066-1.423c-.1-.24-2.677-6.377-12.344-7.531-11.617-1.392-16.177,4.809-16.365,5.072a2.218,2.218,0,0,1-3.07.541,2.2,2.2,0,0,1-.564-3.052c.244-.356,6.124-8.664,20.523-6.949,12.431,1.485,15.812,9.982,15.949,10.342a2.209,2.209,0,0,1-1.276,2.853,2.187,2.187,0,0,1-.787.147" transform="translate(-207.846 658.045)"/>
      <path id="path224" class="cls-6" d="M391.411-67.752s182.651-42.5,244.109-68.351l61.458-25.846s42.5-13.212,49.4-18.381c0,0-.852-9.545-2.623-18.545-1.372-6.972-3.294-13.618-5.8-15.246a44.93,44.93,0,0,0-9.955-5.648s1.512-9.381-9.008-10.626c0,0,1.925-6.893-9.849-9-8.855-1.585-65.48,48.4-66.341,47.822s-213.187,33.642-213.187,33.642-59.737,32.453-38.2,90.178" transform="translate(-288.598 827.649)"/>
      <path id="path226" class="cls-11" d="M516.342-148.536S457.182,9.738,457.758,78.79l187.82,2.424s-66.053-179.78-68.925-229.749h-60.31" transform="translate(-249.259 877.992)"/>
      <path id="path228" class="cls-5" d="M516.342-148.536S457.182,9.738,457.758,78.79l187.82,2.424s-66.053-179.78-68.925-229.749Z" transform="translate(-249.259 877.992)"/>
      <path id="path230" class="cls-12" d="M366.7-233.373s25.655-1.914,37.141,0,14.934,3.445,14.934,3.445" transform="translate(-299.69 830.532)"/>
      <path id="path232" class="cls-13" d="M481.6-453.122s16.753,21.443,52.769,26.708" transform="translate(-236.053 709.294)"/>
      <path id="path234" class="cls-13" d="M448.884-519.323s10.05,6.371,10.338,31.931" transform="translate(-254.171 672.627)"/>
      <path id="path236" class="cls-14" d="M449.119-502.024s.574-8.329,5.169-11.2" transform="translate(-254.041 676.005)"/>
      <path id="path238" class="cls-13" d="M449.119-502.024s.574-8.329,5.169-11.2" transform="translate(-254.041 676.005)"/>
      <path id="path240" class="cls-15" d="M416.916-204.6a.893.893,0,0,1-.147-.01,1.148,1.148,0,0,1-.992-1.287c.06-.464,5.973-47.005,3.709-96.294-2.256-49.069-31.09-90.3-31.382-90.716a1.152,1.152,0,0,1,.274-1.6,1.149,1.149,0,0,1,1.6.273c.294.416,29.515,42.207,31.8,91.937,2.275,49.5-3.665,96.229-3.725,96.7a1.15,1.15,0,0,1-1.139,1" transform="translate(-287.952 741.64)"/>
      <path id="path242" class="cls-15" d="M603.535-169.9a1.228,1.228,0,0,1-.271-.031,1.15,1.15,0,0,1-.845-1.388c.16-.651,15.671-65.651,3.845-102.816-11.961-37.591-16.659-84.772-16.707-85.242a1.154,1.154,0,0,1,1.032-1.258,1.17,1.17,0,0,1,1.258,1.032c.046.472,4.722,47.418,16.608,84.772,12.019,37.779-3.642,103.4-3.8,104.055a1.149,1.149,0,0,1-1.117.876" transform="translate(-176.261 760.517)"/>
      <path id="path244" class="cls-15" d="M628.1-152.56a1.147,1.147,0,0,1-1.135-.994c-.041-.292-4.04-29.534-7.112-37.357-1.316-3.35-1.229-5.422.261-6.155,3.955-1.937,11.828,10.477,14.142,14.337,9.563,15.934,9.087,22.264,9.062,22.527a1.171,1.171,0,0,1-1.253,1.034,1.149,1.149,0,0,1-1.034-1.253c0-.043.307-6.043-8.745-21.128-5.755-9.592-9.8-13.081-11.053-13.4a7.821,7.821,0,0,0,.76,3.2c3.172,8.078,7.083,36.673,7.247,37.887a1.149,1.149,0,0,1-.984,1.293.961.961,0,0,1-.155.01" transform="translate(-159.99 850.999)"/>
      <path id="path246" class="cls-15" d="M643.295-178.955a1.149,1.149,0,0,1-1.073-.738,37.71,37.71,0,0,0-18.887-20.6,1.153,1.153,0,0,1-.636-1.5,1.154,1.154,0,0,1,1.5-.634,39.465,39.465,0,0,1,20.169,21.907,1.147,1.147,0,0,1-.661,1.483,1.185,1.185,0,0,1-.41.075" transform="translate(-157.948 848.101)"/>
      <path id="path248" class="cls-15" d="M350.577-158a2.017,2.017,0,0,1-.439-.052c-1.624-.381-1.991-2.629-2.146-5-1.164-17.992,17.3-39.621,18.083-40.531a1.147,1.147,0,0,1,1.62-.122,1.148,1.148,0,0,1,.12,1.62c-.186.218-18.634,21.833-17.53,38.884a9.84,9.84,0,0,0,.441,2.766c1.168-.889,3.646-5.171,5.853-8.979,6.149-10.624,15.443-26.681,27.271-30.159a1.151,1.151,0,0,1,1.427.775,1.15,1.15,0,0,1-.779,1.428c-10.947,3.222-19.966,18.8-25.933,29.107-4.113,7.106-6.025,10.266-7.989,10.266" transform="translate(-310.081 847.282)"/>
      <path id="path250" class="cls-15" d="M360.408-125.509a1.15,1.15,0,0,1-1.148-1.09c-2.426-46.9,47.7-74.173,48.211-74.442a1.15,1.15,0,0,1,1.554.472,1.151,1.151,0,0,1-.472,1.556c-.5.263-49.348,26.865-47,72.3a1.145,1.145,0,0,1-1.088,1.2.577.577,0,0,1-.06,0" transform="translate(-303.858 848.837)"/>
      <path id="path252" class="cls-15" d="M488.859-225.431a1.118,1.118,0,0,1-.232-.023c-38.965-7.964-64.682-34.972-64.937-35.246a1.147,1.147,0,0,1,.052-1.622,1.15,1.15,0,0,1,1.622.05c.253.267,25.5,26.753,63.723,34.566a1.149,1.149,0,0,1,.9,1.357,1.147,1.147,0,0,1-1.123.918" transform="translate(-268.298 814.798)"/>
      <path id="path254" class="cls-15" d="M517.553-177.146a1.16,1.16,0,0,1-.321-.048c-.564-.164-56.515-17.117-74.113-75.053-17.526-57.689,15-158.777,15.329-159.79a1.152,1.152,0,0,1,1.448-.738,1.149,1.149,0,0,1,.738,1.448C460.3-410.32,428-309.912,445.317-252.914c17.242,56.761,72.008,73.355,72.559,73.516a1.148,1.148,0,0,1,.779,1.425,1.146,1.146,0,0,1-1.1.827" transform="translate(-260.234 731.609)"/>
      <path id="path256" class="cls-15" d="M540.791-183.923a1.147,1.147,0,0,1-.866-.394,1.146,1.146,0,0,1,.11-1.62c.516-.45,51.571-45.431,51.571-78.973,0-33.893-29.515-127.371-29.813-128.311a1.149,1.149,0,0,1,.748-1.444,1.147,1.147,0,0,1,1.442.748c1.222,3.854,29.921,94.76,29.921,129.007,0,34.587-50.219,78.839-52.357,80.705a1.155,1.155,0,0,1-.756.282" transform="translate(-203.905 741.641)"/>
      <path id="path258" class="cls-16" d="M489.146-575.233s30.387,24.69,64.572,31.251,48.688,4.834,48.688,4.834" transform="translate(-231.872 641.661)"/>
      <path id="path260" class="cls-16" d="M447.7-575.233s14.675,5.2,23.308,11.233" transform="translate(-254.826 641.661)"/>
      <path id="path262" class="cls-16" d="M586.7-512.635s3.8,67.268,19.336,92.475,25.9,28.313,30.041,39.364" transform="translate(-177.84 676.331)"/>
      <path id="path264" class="cls-16" d="M417.59-481.788s4.49,58.355,35.913,78.383" transform="translate(-271.504 693.416)"/>
      <path id="path266" class="cls-16" d="M418.979-477.641s.518-17.092,8.028-29.782,9.582-21.754,9.582-21.754" transform="translate(-270.735 667.169)"/>
      <path id="path268" class="cls-16" d="M567.812-552.29l7.769-1.554" transform="translate(-188.302 653.507)"/>
      <path id="path270" class="cls-16" d="M452.348-572.344s-12,4.521-13.036,13.655" transform="translate(-259.473 643.261)"/>
      <path id="path272" class="cls-16" d="M453.146-560.918s32.89-50.241,75.362-50.759" transform="translate(-251.811 621.476)"/>
    </g>
  </g>
</svg>
