<svg xmlns="http://www.w3.org/2000/svg" width="121" height="121" viewBox="0 0 121 121">
  <g id="github" transform="translate(-482 -3537)">
    <g id="Ellipse_6" data-name="Ellipse 6" transform="translate(482 3537)" fill="#454141" stroke="#707070" stroke-width="1">
      <circle cx="60.5" cy="60.5" r="60.5" stroke="none"/>
      <circle cx="60.5" cy="60.5" r="60" fill="none"/>
    </g>
    <path id="Path_13" data-name="Path 13" d="M88.993,176.656c0-1.044-.038-3.8-.06-7.466C76.773,171.841,74.2,163.3,74.2,163.3c-1.984-5.072-4.853-6.422-4.853-6.422-3.973-2.722.3-2.667.3-2.667,4.389.312,6.7,4.525,6.7,4.525,3.9,6.706,10.237,4.771,12.729,3.645a9.37,9.37,0,0,1,2.776-5.87c-9.706-1.109-19.916-4.875-19.916-21.692a17.015,17.015,0,0,1,4.5-11.783c-.454-1.109-1.951-5.575.426-11.614,0,0,3.673-1.181,12.024,4.5a41.27,41.27,0,0,1,21.894.005c8.346-5.679,12.013-4.5,12.013-4.5,2.383,6.045.885,10.5.437,11.614a16.982,16.982,0,0,1,4.493,11.783c0,16.861-10.22,20.572-19.96,21.659,1.569,1.355,2.968,4.033,2.968,8.127,0,5.87-.055,10.6-.055,12.04C110.674,177.831,88.993,177.82,88.993,176.656Z" transform="translate(444.607 3452.671)" fill="#fff"/>
  </g>
</svg>
