<svg xmlns="http://www.w3.org/2000/svg" width="121" height="121" viewBox="0 0 121 121">
  <g id="instagram" transform="translate(23.02 24)">
    <g id="Ellipse_2" data-name="Ellipse 2" transform="translate(-23.02 -24)" fill="#454141" stroke="#707070" stroke-width="1">
      <circle cx="60.5" cy="60.5" r="60.5" stroke="none"/>
      <circle cx="60.5" cy="60.5" r="60" fill="none"/>
    </g>
    <path id="Path_60" data-name="Path 60" d="M73.8,21.624a26.876,26.876,0,0,0-1.71-8.924A18.841,18.841,0,0,0,61.324,1.94,26.944,26.944,0,0,0,52.4.23C48.465.043,47.214,0,37.23,0S26,.043,22.057.215a26.882,26.882,0,0,0-8.909,1.71A17.946,17.946,0,0,0,6.627,6.178a18.109,18.109,0,0,0-4.241,6.509A26.947,26.947,0,0,0,.679,21.608C.492,25.546.449,26.8.449,36.775S.492,48.01.664,51.932a26.873,26.873,0,0,0,1.71,8.924A18.838,18.838,0,0,0,13.136,71.619a26.947,26.947,0,0,0,8.921,1.716c3.923.172,5.173.215,15.157.215s11.235-.043,15.157-.215a26.87,26.87,0,0,0,8.921-1.71A18.813,18.813,0,0,0,72.056,60.863a26.969,26.969,0,0,0,1.71-8.924c.172-3.923.215-5.173.215-15.157s0-11.235-.187-15.157ZM67.174,51.657a20.159,20.159,0,0,1-1.266,6.825,12.2,12.2,0,0,1-6.984,6.984A20.226,20.226,0,0,1,52.1,66.728c-3.88.172-5.044.215-14.857.215S26.25,66.9,22.385,66.728a20.15,20.15,0,0,1-6.825-1.263,11.318,11.318,0,0,1-4.229-2.749,11.434,11.434,0,0,1-2.758-4.223,20.226,20.226,0,0,1-1.263-6.825c-.172-3.88-.215-5.044-.215-14.857s.043-10.993.215-14.857A20.15,20.15,0,0,1,8.573,15.13,11.18,11.18,0,0,1,11.331,10.9a11.419,11.419,0,0,1,4.223-2.758A20.245,20.245,0,0,1,22.379,6.88c3.88-.172,5.044-.215,14.857-.215s10.993.043,14.857.215a20.159,20.159,0,0,1,6.825,1.266A11.308,11.308,0,0,1,63.141,10.9,11.434,11.434,0,0,1,65.9,15.13a20.226,20.226,0,0,1,1.266,6.825c.172,3.88.215,5.044.215,14.857s-.043,10.962-.215,14.842Zm0,0" transform="translate(0 0)" fill="#fff"/>
    <path id="Path_61" data-name="Path 61" d="M142.984,124.5a18.035,18.035,0,1,0,18.035,18.035A18.035,18.035,0,0,0,142.984,124.5Zm0,29.726a11.7,11.7,0,1,1,11.7-11.7,11.7,11.7,0,0,1-11.7,11.7Zm0,0" transform="translate(-105.754 -105.751)" fill="#fff"/>
    <path id="Path_62" data-name="Path 62" d="M371.7,93.225a4.624,4.624,0,1,1-4.625-4.625A4.624,4.624,0,0,1,371.7,93.225Zm0,0" transform="translate(-310.331 -75.957)" fill="#fff"/>
  </g>
</svg>
