<svg xmlns="http://www.w3.org/2000/svg" width="121" height="121" viewBox="0 0 121 121">
  <g id="linkedin" transform="translate(27.691 -1.916)">
    <g id="Ellipse_3" data-name="Ellipse 3" transform="translate(-27.691 1.916)" fill="#454141" stroke="#707070" stroke-width="1">
      <circle cx="60.5" cy="60.5" r="60.5" stroke="none"/>
      <circle cx="60.5" cy="60.5" r="60" fill="none"/>
    </g>
    <g id="Group_5" data-name="Group 5" transform="translate(0 23.916)">
      <path id="Path_7" data-name="Path 7" d="M2.146,220.69h8.59a2.146,2.146,0,0,0,2.146-2.146V181a2.146,2.146,0,0,0-2.146-2.146H2.146A2.146,2.146,0,0,0,0,181v37.548A2.146,2.146,0,0,0,2.146,220.69Z" transform="translate(0 -160.329)" fill="#fff"/>
      <path id="Path_8" data-name="Path 8" d="M2.146,35.836h8.59a2.146,2.146,0,0,0,2.146-2.146V26.062a2.146,2.146,0,0,0-2.146-2.146H2.146A2.146,2.146,0,0,0,0,26.062V33.69A2.146,2.146,0,0,0,2.146,35.836Z" transform="translate(0 -23.916)" fill="#fff"/>
      <path id="Path_9" data-name="Path 9" d="M222.689,175.1a13.062,13.062,0,0,0-5.341-3.92,19.337,19.337,0,0,0-7.794-1.536,19.087,19.087,0,0,0-14.668,6.607c-.8.876-1.377.685-1.377-.5v-2.86a2.146,2.146,0,0,0-2.146-2.146H183.69a2.146,2.146,0,0,0-2.146,2.146v37.548a2.146,2.146,0,0,0,2.146,2.146h8.59a2.146,2.146,0,0,0,2.146-2.146V197.381q0-8.16.986-11.186a9.238,9.238,0,0,1,3.645-4.859,10.33,10.33,0,0,1,6.006-1.834,7.664,7.664,0,0,1,4.47,1.284,7.153,7.153,0,0,1,2.682,3.6q.826,2.315.825,10.2v15.854a2.146,2.146,0,0,0,2.146,2.146h8.59a2.146,2.146,0,0,0,2.146-2.146V189.175a40.269,40.269,0,0,0-.71-8.664A14.191,14.191,0,0,0,222.689,175.1Z" transform="translate(-159.842 -152.224)" fill="#fff"/>
    </g>
  </g>
</svg>
