<svg xmlns="http://www.w3.org/2000/svg" width="121" height="121" viewBox="0 0 121 121">
  <g id="twitter" transform="translate(27.991 -14)">
    <g id="Ellipse_4" data-name="Ellipse 4" transform="translate(-27.991 14)" fill="#454141" stroke="#707070" stroke-width="1">
      <circle cx="60.5" cy="60.5" r="60.5" stroke="none"/>
      <circle cx="60.5" cy="60.5" r="60" fill="none"/>
    </g>
    <g id="Group_6" data-name="Group 6" transform="translate(0 48)">
      <path id="Path_10" data-name="Path 10" d="M66.009,54.349a28.214,28.214,0,0,1-7.8,2.137,13.456,13.456,0,0,0,5.953-7.48,27.044,27.044,0,0,1-8.581,3.276,13.531,13.531,0,0,0-23.408,9.254,13.934,13.934,0,0,0,.314,3.086A38.3,38.3,0,0,1,4.6,50.467,13.536,13.536,0,0,0,8.754,68.554,13.364,13.364,0,0,1,2.64,66.887v.149a13.6,13.6,0,0,0,10.842,13.3,13.507,13.507,0,0,1-3.548.446,11.964,11.964,0,0,1-2.562-.231,13.661,13.661,0,0,0,12.645,9.427A27.191,27.191,0,0,1,3.239,95.745,25.347,25.347,0,0,1,0,95.559a38.1,38.1,0,0,0,20.76,6.073c24.9,0,38.516-20.628,38.516-38.508,0-.6-.021-1.176-.05-1.749A27,27,0,0,0,66.009,54.349Z" transform="translate(0 -48)" fill="#fff"/>
    </g>
  </g>
</svg>
